<svg width="15" height="14" viewBox="0 0 15 14" fill="none" xmlns="http://www.w3.org/2000/svg">
<path d="M8.10006 14.0001C7.90229 13.9992 7.7092 13.9398 7.54522 13.8292C7.38123 13.7187 7.25371 13.5619 7.17879 13.3789C7.10386 13.1959 7.08489 12.9947 7.12428 12.8009C7.16366 12.6071 7.25963 12.4293 7.40006 12.2901L12.0001 7.71006C12.0938 7.6171 12.1682 7.5065 12.219 7.38464C12.2697 7.26278 12.2959 7.13207 12.2959 7.00006C12.2959 6.86805 12.2697 6.73734 12.219 6.61548C12.1682 6.49362 12.0938 6.38302 12.0001 6.29006L7.40006 1.71006C7.30633 1.6171 7.23193 1.5065 7.18116 1.38464C7.1304 1.26278 7.10426 1.13207 7.10426 1.00006C7.10426 0.868048 7.1304 0.737343 7.18116 0.615483C7.23193 0.493624 7.30633 0.383023 7.40006 0.29006C7.58742 0.103809 7.84087 -0.000732422 8.10506 -0.000732422C8.36924 -0.000732422 8.6227 0.103809 8.81006 0.29006L13.4001 4.88006C13.9619 5.44256 14.2774 6.20506 14.2774 7.00006C14.2774 7.79506 13.9619 8.55756 13.4001 9.12006L8.81006 13.7101C8.71662 13.8027 8.6058 13.8761 8.48397 13.9258C8.36213 13.9756 8.23167 14.0008 8.10006 14.0001Z" fill="white"/>
<path d="M1.10006 14.0001C0.902283 13.9992 0.709197 13.9398 0.545214 13.8292C0.38123 13.7187 0.253713 13.5619 0.178788 13.3789C0.103862 13.1959 0.0848927 12.9947 0.124278 12.8009C0.163663 12.6071 0.259634 12.4293 0.400056 12.2901L5.69006 7.00006L0.400056 1.71006C0.306327 1.6171 0.231933 1.5065 0.181164 1.38464C0.130395 1.26278 0.104257 1.13207 0.104257 1.00006C0.104257 0.868048 0.130395 0.737343 0.181164 0.615483C0.231933 0.493624 0.306327 0.383023 0.400056 0.29006C0.587418 0.103809 0.84087 -0.000732422 1.10506 -0.000732422C1.36924 -0.000732422 1.62269 0.103809 1.81006 0.29006L7.81006 6.29006C7.90378 6.38302 7.97818 6.49362 8.02895 6.61548C8.07972 6.73734 8.10585 6.86805 8.10585 7.00006C8.10585 7.13207 8.07972 7.26278 8.02895 7.38464C7.97818 7.5065 7.90378 7.6171 7.81006 7.71006L1.81006 13.7101C1.71662 13.8027 1.6058 13.8761 1.48396 13.9258C1.36212 13.9756 1.23166 14.0008 1.10006 14.0001Z" fill="white"/>
</svg>
