<svg width="25" height="25" viewBox="0 0 25 25" fill="none" xmlns="http://www.w3.org/2000/svg">
<path fill-rule="evenodd" clip-rule="evenodd" d="M9.5 2.5C13.366 2.5 16.5 5.63401 16.5 9.5C16.5 13.366 13.366 16.5 9.5 16.5C8.65977 16.5 7.85623 16.3524 7.11247 16.0826C6.78463 15.9636 6.42007 15.937 6.06448 16.0244C5.10939 16.259 4.13437 16.4078 3.15106 16.4686C3.52083 15.4944 3.64858 14.4412 3.51859 13.4008C3.48967 13.1694 3.41398 12.9664 3.32407 12.7985C2.79846 11.8167 2.5 10.6947 2.5 9.5C2.5 5.63401 5.63401 2.5 9.5 2.5ZM18.5 9.5C18.5 4.52944 14.4706 0.5 9.5 0.5C4.52944 0.5 0.5 4.52944 0.5 9.5C0.5 11.0167 0.875978 12.4485 1.54062 13.7044C1.64435 14.6303 1.45212 15.5682 0.987331 16.3816L0.946316 16.4533C0.4252 17.3653 1.08368 18.5 2.13403 18.5C3.60189 18.5 5.06133 18.3251 6.48192 17.9812C7.42665 18.3174 8.44307 18.5 9.5 18.5C14.4706 18.5 18.5 14.4706 18.5 9.5ZM20.8552 8.75812C20.4331 9.11423 20.3795 9.74513 20.7356 10.1673C21.8371 11.473 22.5 13.1578 22.5 15C22.5 16.2826 22.1789 17.4872 21.6135 18.5408C21.5228 18.7097 21.4476 18.9124 21.4185 19.1425C21.2755 20.2732 21.4218 21.4185 21.8392 22.4723C20.7529 22.4111 19.6756 22.2493 18.6212 21.9894C18.2653 21.9017 17.8998 21.9281 17.5708 22.0481C16.7702 22.3402 15.9049 22.5 15 22.5C13.1578 22.5 11.473 21.8371 10.1673 20.7356C9.74512 20.3795 9.11423 20.4331 8.75812 20.8552C8.40201 21.2774 8.45555 21.9083 8.8777 22.2644C10.5307 23.6588 12.6684 24.5 15 24.5C16.1223 24.5 17.2012 24.305 18.2033 23.9461C19.7136 24.3133 21.2654 24.5 22.8263 24.5C23.8943 24.5 24.5639 23.3462 24.034 22.419L24.034 22.4189L23.9904 22.3427C23.488 21.4635 23.2814 20.4491 23.396 19.4484C24.101 18.1203 24.5 16.6053 24.5 15C24.5 12.6684 23.6587 10.5307 22.2644 8.8777C21.9083 8.45555 21.2774 8.40202 20.8552 8.75812ZM5.5 10.5C6.05228 10.5 6.5 10.0523 6.5 9.5C6.5 8.94772 6.05228 8.5 5.5 8.5C4.94772 8.5 4.5 8.94772 4.5 9.5C4.5 10.0523 4.94772 10.5 5.5 10.5ZM10.5 9.5C10.5 10.0523 10.0523 10.5 9.5 10.5C8.94771 10.5 8.5 10.0523 8.5 9.5C8.5 8.94772 8.94771 8.5 9.5 8.5C10.0523 8.5 10.5 8.94772 10.5 9.5ZM13.5 10.5C14.0523 10.5 14.5 10.0523 14.5 9.5C14.5 8.94772 14.0523 8.5 13.5 8.5C12.9477 8.5 12.5 8.94772 12.5 9.5C12.5 10.0523 12.9477 10.5 13.5 10.5Z" fill="#28426D"/>
</svg>
