<svg width="24" height="24" viewBox="0 0 24 24" fill="none" xmlns="http://www.w3.org/2000/svg">
<path fill-rule="evenodd" clip-rule="evenodd" d="M9.5 3.66667C12.7217 3.66667 15.3333 6.27834 15.3333 9.5C15.3333 12.7217 12.7217 15.3333 9.5 15.3333C8.79981 15.3333 8.13019 15.2103 7.51039 14.9855C7.23719 14.8864 6.93339 14.8642 6.63706 14.937C5.84115 15.1325 5.02864 15.2565 4.20922 15.3072C4.51736 14.4953 4.62381 13.6176 4.51549 12.7507C4.49139 12.5578 4.42832 12.3887 4.35339 12.2487C3.91538 11.4306 3.66667 10.4956 3.66667 9.5C3.66667 6.27834 6.27834 3.66667 9.5 3.66667ZM17 9.5C17 5.35786 13.6421 2 9.5 2C5.35786 2 2 5.35786 2 9.5C2 10.7639 2.31332 11.9571 2.86718 13.0037C2.95363 13.7752 2.79343 14.5568 2.40611 15.2346L2.37193 15.2945C1.93767 16.0544 2.4864 17 3.3617 17C4.58491 17 5.80111 16.8543 6.98494 16.5677C7.77221 16.8478 8.61922 17 9.5 17C13.6421 17 17 13.6421 17 9.5ZM18.9627 8.88177C18.6109 9.17852 18.5663 9.70427 18.863 10.0561C19.7809 11.1442 20.3333 12.5482 20.3333 14.0833C20.3333 15.1522 20.0657 16.156 19.5946 17.034C19.519 17.1747 19.4563 17.3437 19.4321 17.5354C19.3129 18.4776 19.4349 19.4321 19.7826 20.3102C18.8774 20.2593 17.9797 20.1244 17.101 19.9078C16.8044 19.8347 16.4998 19.8567 16.2257 19.9568C15.5585 20.2002 14.8374 20.3333 14.0833 20.3333C12.5482 20.3333 11.1442 19.7809 10.0561 18.863C9.70427 18.5663 9.17852 18.6109 8.88177 18.9627C8.58501 19.3145 8.62963 19.8402 8.98141 20.137C10.3589 21.299 12.1403 22 14.0833 22C15.0186 22 15.9177 21.8375 16.7527 21.5384C18.0113 21.8444 19.3045 22 20.6053 22C21.4953 22 22.0532 21.0385 21.6117 20.2658L21.5754 20.2022C21.1567 19.4696 20.9845 18.6243 21.08 17.7904C21.6675 16.6836 22 15.4211 22 14.0833C22 12.1403 21.299 10.3589 20.137 8.98142C19.8402 8.62963 19.3145 8.58501 18.9627 8.88177ZM6.16667 10.3333C6.6269 10.3333 7 9.96024 7 9.5C7 9.03976 6.6269 8.66667 6.16667 8.66667C5.70643 8.66667 5.33333 9.03976 5.33333 9.5C5.33333 9.96024 5.70643 10.3333 6.16667 10.3333ZM10.3333 9.5C10.3333 9.96024 9.96024 10.3333 9.5 10.3333C9.03976 10.3333 8.66667 9.96024 8.66667 9.5C8.66667 9.03976 9.03976 8.66667 9.5 8.66667C9.96024 8.66667 10.3333 9.03976 10.3333 9.5ZM12.8333 10.3333C13.2936 10.3333 13.6667 9.96024 13.6667 9.5C13.6667 9.03976 13.2936 8.66667 12.8333 8.66667C12.3731 8.66667 12 9.03976 12 9.5C12 9.96024 12.3731 10.3333 12.8333 10.3333Z" fill="#28426D"/>
</svg>
