<svg width="20" height="20" viewBox="0 0 20 20" fill="none" xmlns="http://www.w3.org/2000/svg">
<g clip-path="url(#clip0_291_4420)">
<path d="M6.99594 0.714355H2.28468C1.41736 0.714355 0.714264 1.41745 0.714264 2.28477V6.99601C0.714264 7.86333 1.41736 8.56643 2.28468 8.56643H6.99594C7.86326 8.56643 8.56636 7.86333 8.56636 6.99601V2.28477C8.56636 1.41745 7.86326 0.714355 6.99594 0.714355Z" stroke="#28426D" stroke-width="1.5" stroke-linecap="round" stroke-linejoin="round"/>
<path d="M17.5962 0.714355H12.885C12.0177 0.714355 11.3146 1.41745 11.3146 2.28477V6.99601C11.3146 7.86333 12.0177 8.56643 12.885 8.56643H17.5962C18.4636 8.56643 19.1667 7.86333 19.1667 6.99601V2.28477C19.1667 1.41745 18.4636 0.714355 17.5962 0.714355Z" stroke="#28426D" stroke-width="1.5" stroke-linecap="round" stroke-linejoin="round"/>
<path d="M6.99594 11.3147H2.28468C1.41736 11.3147 0.714264 12.0178 0.714264 12.8851V17.5964C0.714264 18.4637 1.41736 19.1668 2.28468 19.1668H6.99594C7.86326 19.1668 8.56636 18.4637 8.56636 17.5964V12.8851C8.56636 12.0178 7.86326 11.3147 6.99594 11.3147Z" stroke="#28426D" stroke-width="1.5" stroke-linecap="round" stroke-linejoin="round"/>
<path d="M17.5962 11.3147H12.885C12.0177 11.3147 11.3146 12.0178 11.3146 12.8851V17.5964C11.3146 18.4637 12.0177 19.1668 12.885 19.1668H17.5962C18.4636 19.1668 19.1667 18.4637 19.1667 17.5964V12.8851C19.1667 12.0178 18.4636 11.3147 17.5962 11.3147Z" stroke="#28426D" stroke-width="1.5" stroke-linecap="round" stroke-linejoin="round"/>
</g>
<defs>
<clipPath id="clip0_291_4420">
<rect width="20" height="20" fill="white"/>
</clipPath>
</defs>
</svg>
