<svg width="44" height="40" viewBox="0 0 44 40" fill="none" xmlns="http://www.w3.org/2000/svg">
<g filter="url(#filter0_d_394_3935)">
<path d="M7 14C7 8.47715 11.4772 4 17 4H24.8C30.3228 4 34.8 8.47715 34.8 14V18C34.8 23.5228 30.3228 28 24.8 28H17C11.4772 28 7 23.5228 7 18V14Z" fill="white"/>
<path d="M17 4.84961H24.7998C29.8532 4.84961 33.9502 8.9466 33.9502 14V18C33.9502 23.0534 29.8532 27.1504 24.7998 27.1504H17C11.9466 27.1504 7.84961 23.0534 7.84961 18V14C7.84961 8.94659 11.9466 4.84961 17 4.84961Z" stroke="#28426D" stroke-width="1.7"/>
</g>
<path fill-rule="evenodd" clip-rule="evenodd" d="M20.6669 10.1111C21.4957 9.41547 22.7603 9.91811 22.8941 10.9963C23.3065 14.3192 23.3065 17.6809 22.8941 21.0038C22.7603 22.082 21.4957 22.5846 20.6669 21.889L17.2488 19.0202C17.2134 18.9905 17.1688 18.9742 17.1228 18.9742H14.2581C13.4971 18.9742 12.8801 18.3528 12.8801 17.5863V14.4139C12.8801 13.6473 13.4971 13.0259 14.2581 13.0259H17.1228C17.1688 13.0259 17.2134 13.0097 17.2488 12.98L20.6669 10.1111ZM21.7221 11.1439C21.7041 10.9991 21.5343 10.9316 21.423 11.025L18.005 13.8939C17.7573 14.1017 17.4452 14.2156 17.1228 14.2156H14.2581C14.1494 14.2156 14.0613 14.3043 14.0613 14.4139V17.5863C14.0613 17.6958 14.1494 17.7845 14.2581 17.7845H17.1228C17.4452 17.7845 17.7573 17.8984 18.005 18.1062L21.423 20.9751C21.5343 21.0685 21.7041 21.001 21.7221 20.8562C22.1223 17.6313 22.1223 14.3688 21.7221 11.1439Z" fill="#28426D"/>
<path d="M26.7848 11.1984C27.0945 11.0953 27.4285 11.2645 27.531 11.5764C27.988 12.9683 28.2352 14.4557 28.2352 16.0001C28.2352 17.5444 27.988 19.0319 27.531 20.4237C27.4285 20.7356 27.0945 20.9049 26.7848 20.8017C26.4751 20.6985 26.3071 20.3621 26.4096 20.0502C26.8275 18.7773 27.054 17.4159 27.054 16.0001C27.054 14.5842 26.8275 13.2228 26.4096 11.95C26.3071 11.6381 26.4751 11.3016 26.7848 11.1984Z" fill="#28426D"/>
<path d="M25.3077 12.7862C25.1952 12.4778 24.8558 12.3197 24.5497 12.433C24.2435 12.5463 24.0865 12.8881 24.199 13.1964C24.5175 14.0696 24.6917 15.0137 24.6917 16.0001C24.6917 16.8182 24.5718 17.6072 24.3493 18.3505C24.3369 18.392 24.3242 18.4333 24.3112 18.4744C24.276 18.5852 24.2386 18.695 24.199 18.8037C24.0865 19.112 24.2435 19.4539 24.5497 19.5672C24.8558 19.6805 25.1952 19.5223 25.3077 19.214C25.3532 19.0892 25.3961 18.9633 25.4364 18.8361C25.4514 18.7889 25.466 18.7415 25.4802 18.694C25.7357 17.8404 25.8728 16.9358 25.8728 16.0001C25.8728 14.8716 25.6734 13.7888 25.3077 12.7862Z" fill="#28426D"/>
<defs>
<filter id="filter0_d_394_3935" x="0" y="0" width="43.8" height="40" filterUnits="userSpaceOnUse" color-interpolation-filters="sRGB">
<feFlood flood-opacity="0" result="BackgroundImageFix"/>
<feColorMatrix in="SourceAlpha" type="matrix" values="0 0 0 0 0 0 0 0 0 0 0 0 0 0 0 0 0 0 127 0" result="hardAlpha"/>
<feMorphology radius="4" operator="dilate" in="SourceAlpha" result="effect1_dropShadow_394_3935"/>
<feOffset dx="1" dy="4"/>
<feGaussianBlur stdDeviation="2"/>
<feComposite in2="hardAlpha" operator="out"/>
<feColorMatrix type="matrix" values="0 0 0 0 0 0 0 0 0 0 0 0 0 0 0 0 0 0 0.02 0"/>
<feBlend mode="normal" in2="BackgroundImageFix" result="effect1_dropShadow_394_3935"/>
<feBlend mode="normal" in="SourceGraphic" in2="effect1_dropShadow_394_3935" result="shape"/>
</filter>
</defs>
</svg>
