<svg width="15" height="15" viewBox="0 0 15 15" fill="none" xmlns="http://www.w3.org/2000/svg">
<path fill-rule="evenodd" clip-rule="evenodd" d="M7.5867 2.85922C8.24452 2.31103 9.24829 2.70714 9.3545 3.55682C9.68183 6.1754 9.68183 8.82455 9.3545 11.4431C9.24829 12.2928 8.24452 12.6889 7.5867 12.1407L4.87375 9.87994C4.84567 9.85654 4.81027 9.84373 4.77372 9.84373H2.5C1.89594 9.84373 1.40625 9.35404 1.40625 8.74998V6.24998C1.40625 5.64592 1.89594 5.15623 2.5 5.15623H4.77372C4.81027 5.15623 4.84567 5.14341 4.87375 5.12001L7.5867 2.85922ZM8.42424 3.6731C8.40998 3.55901 8.2752 3.50582 8.18687 3.57943L5.47392 5.84022C5.27736 6.00402 5.02959 6.09373 4.77372 6.09373H2.5C2.41371 6.09373 2.34375 6.16368 2.34375 6.24998V8.74998C2.34375 8.83627 2.41371 8.90623 2.5 8.90623H4.77372C5.02959 8.90623 5.27736 8.99593 5.47392 9.15974L8.18687 11.4205C8.2752 11.4941 8.40998 11.4409 8.42424 11.3269C8.74191 8.78549 8.74191 6.21446 8.42424 3.6731Z" fill="#28426D"/>
<path d="M12.4426 3.71608C12.6884 3.63479 12.9535 3.76814 13.0348 4.01393C13.3976 5.11079 13.5938 6.28295 13.5938 7.49998C13.5938 8.71702 13.3976 9.88918 13.0348 10.986C12.9535 11.2318 12.6884 11.3652 12.4426 11.2839C12.1968 11.2026 12.0635 10.9374 12.1448 10.6916C12.4765 9.68857 12.6563 8.61574 12.6563 7.49998C12.6563 6.38423 12.4765 5.3114 12.1448 4.30832C12.0635 4.06253 12.1968 3.79738 12.4426 3.71608Z" fill="#28426D"/>
<path d="M11.2702 4.96729C11.1809 4.72429 10.9115 4.59968 10.6685 4.68896C10.4255 4.77824 10.3009 5.04761 10.3902 5.29061C10.643 5.9787 10.7812 6.72267 10.7812 7.49998C10.7812 8.14474 10.6861 8.76644 10.5095 9.35226C10.4997 9.38491 10.4896 9.41744 10.4792 9.44986C10.4514 9.53718 10.4217 9.6237 10.3902 9.70935C10.3009 9.95235 10.4255 10.2217 10.6685 10.311C10.9115 10.4003 11.1809 10.2757 11.2702 10.0327C11.3063 9.93438 11.3404 9.8351 11.3723 9.73489C11.3842 9.69768 11.3958 9.66035 11.4071 9.62289C11.6099 8.95025 11.7187 8.2374 11.7187 7.49998C11.7187 6.61073 11.5605 5.7574 11.2702 4.96729Z" fill="#28426D"/>
</svg>
