<svg width="17" height="17" viewBox="0 0 17 17" fill="none" xmlns="http://www.w3.org/2000/svg">
<g clip-path="url(#clip0_353_2147)">
<path d="M12.7458 1.61931C11.8813 0.846906 10.8224 0.324893 9.68324 0.109452C8.54407 -0.105989 7.36772 -0.00670131 6.28078 0.39663C5.19384 0.799962 4.23747 1.49207 3.51458 2.39846C2.79169 3.30485 2.32966 4.39122 2.17822 5.54065C2.0422 6.5485 2.15098 7.57428 2.49535 8.53119C2.83972 9.4881 3.40954 10.348 4.15659 11.038C4.61857 11.4431 4.99135 11.9398 5.25131 12.4966C5.51127 13.0533 5.65274 13.658 5.66676 14.2723V14.3863C5.66751 15.0793 5.94313 15.7437 6.43314 16.2337C6.92315 16.7237 7.58753 16.9993 8.28051 17.0001H8.71968C9.41265 16.9993 10.077 16.7237 10.567 16.2337C11.0571 15.7437 11.3327 15.0793 11.3334 14.3863V13.9974C11.344 13.4545 11.4718 12.9202 11.708 12.4312C11.9442 11.9422 12.2832 11.51 12.7019 11.1641C13.3809 10.5694 13.9258 9.83724 14.3005 9.01607C14.6751 8.1949 14.871 7.30349 14.8752 6.4009C14.8793 5.4983 14.6917 4.60513 14.3246 3.78055C13.9575 2.95597 13.4193 2.2188 12.7458 1.6179V1.61931ZM8.71968 15.5834H8.28051C7.96314 15.583 7.65887 15.4568 7.43446 15.2324C7.21004 15.0079 7.0838 14.7037 7.08342 14.3863C7.08342 14.3863 7.07847 14.2021 7.07776 14.1667H9.91676V14.3863C9.91638 14.7037 9.79014 15.0079 9.56573 15.2324C9.34131 15.4568 9.03705 15.583 8.71968 15.5834V15.5834ZM11.7655 10.1002C10.959 10.7997 10.3766 11.7214 10.091 12.7501H9.20842V7.6614C9.62132 7.51542 9.97903 7.24544 10.2326 6.88839C10.4862 6.53134 10.6233 6.10466 10.6251 5.66673C10.6251 5.47887 10.5505 5.2987 10.4176 5.16586C10.2848 5.03302 10.1046 4.9584 9.91676 4.9584C9.7289 4.9584 9.54873 5.03302 9.41589 5.16586C9.28305 5.2987 9.20842 5.47887 9.20842 5.66673C9.20842 5.85459 9.1338 6.03476 9.00096 6.1676C8.86812 6.30044 8.68795 6.37506 8.50009 6.37506C8.31223 6.37506 8.13206 6.30044 7.99922 6.1676C7.86639 6.03476 7.79176 5.85459 7.79176 5.66673C7.79176 5.47887 7.71713 5.2987 7.58429 5.16586C7.45145 5.03302 7.27129 4.9584 7.08342 4.9584C6.89556 4.9584 6.7154 5.03302 6.58256 5.16586C6.44972 5.2987 6.37509 5.47887 6.37509 5.66673C6.37691 6.10466 6.51398 6.53134 6.76757 6.88839C7.02116 7.24544 7.37886 7.51542 7.79176 7.6614V12.7501H6.85534C6.53588 11.6941 5.93672 10.7442 5.12134 10.001C4.42927 9.35615 3.9361 8.52677 3.70005 7.61074C3.46399 6.69471 3.4949 5.73028 3.78912 4.83125C4.08333 3.93221 4.62858 3.1361 5.36052 2.53686C6.09246 1.93762 6.98054 1.56026 7.91997 1.44931C8.11471 1.42757 8.31051 1.4167 8.50647 1.41673C9.72308 1.41311 10.8976 1.86201 11.8016 2.67615C12.3256 3.14336 12.7442 3.71661 13.0298 4.35789C13.3155 4.99917 13.4615 5.69383 13.4583 6.39583C13.4551 7.09783 13.3027 7.79113 13.0112 8.42977C12.7197 9.0684 12.2958 9.63779 11.7676 10.1002H11.7655Z" fill="white"/>
</g>
<defs>
<clipPath id="clip0_353_2147">
<rect width="17" height="17" fill="white"/>
</clipPath>
</defs>
</svg>
