<svg width="201" height="111" viewBox="0 0 201 111" fill="none" xmlns="http://www.w3.org/2000/svg">
<path d="M49.0196 94.7475C47.5885 100.503 46.6977 105.668 46.3473 110.242L43.67 110.664C43.9911 106.674 44.839 101.782 46.2135 95.9861L39.6016 97.1519L39.1735 94.7235L48.7186 93.0405L49.0196 94.7475Z" fill="#28426D"/>
<path d="M160.986 86.4436C158.609 86.8628 156.301 86.4606 154.062 85.237L155.59 82.3616C157.12 83.2104 158.683 83.5059 160.28 83.2481C160.903 83.1382 161.471 82.9191 161.985 82.5906C163.356 81.73 163.883 80.3995 163.565 78.5992C163.456 77.976 163.223 77.3982 162.867 76.866C161.891 75.5149 160.434 75.0103 158.495 75.3522L156.591 75.688L156.084 72.8143L157.4 72.5823C158.207 72.4399 158.899 72.1752 159.473 71.7884C160.725 70.925 161.208 69.6855 160.923 68.0698C160.805 67.4005 160.561 66.8248 160.191 66.3427C159.43 65.4058 158.462 65.0411 157.285 65.2487C155.95 65.5078 154.985 66.38 154.39 67.8653L151.478 66.7366C151.621 66.3307 151.802 65.9417 152.022 65.5698C153.091 63.6678 154.745 62.5194 156.984 62.1246C158.322 61.8886 159.589 61.9865 160.784 62.4184C162.868 63.1695 164.105 64.653 164.496 66.8688C164.602 67.4689 164.623 68.0602 164.559 68.6426C164.318 70.5176 163.391 71.9423 161.778 72.9169C162.553 72.9944 163.289 73.186 163.986 73.4916C165.828 74.3567 166.93 75.8163 167.292 77.8706C167.626 79.7633 167.341 81.4556 166.438 82.9476C165.296 84.8387 163.479 86.004 160.986 86.4436Z" fill="#FFC1C1"/>
<path d="M18.3003 74.5861L8.28692 68.8049L9.2088 67.2081L15.0697 65.4318C16.4773 64.9936 17.3002 64.735 17.5383 64.656C19.3576 64.0465 20.5069 63.3268 20.9861 62.4968C21.2256 62.0818 21.3542 61.6509 21.3717 61.2039C21.3942 60.2066 20.9274 59.4318 19.9711 58.8797C18.8754 58.3193 17.7177 58.3245 16.498 58.8953L15.16 56.4629C15.4502 56.2936 15.7622 56.149 16.0961 56.029C17.9855 55.3398 19.8323 55.5159 21.6366 56.5576C22.683 57.1618 23.4844 57.9612 24.0407 58.956C24.9765 60.6269 24.9652 62.2923 24.0068 63.9522C23.6839 64.5115 23.201 65.0145 22.5582 65.4613C21.6897 66.0905 20.1039 66.7747 17.8008 67.5138C17.1254 67.7253 16.635 67.8872 16.3296 67.9996L13.8994 68.8337L19.691 72.1775L18.3003 74.5861Z" fill="#27BEFF"/>
<path d="M21.0956 14.6474C21.7414 15.7661 21.991 16.9691 21.8443 18.2566C21.5902 20.4 20.2995 22.1435 17.9721 23.4873C16.4024 24.3935 14.8718 24.7841 13.3802 24.6589C11.4284 24.4867 9.94736 23.5256 8.93695 21.7755C8.68695 21.3425 8.48726 20.8925 8.33789 20.4254C7.79731 18.5724 8.10214 16.8087 9.25235 15.1343C9.08439 15.135 8.9022 15.132 8.70577 15.1251C6.82899 14.9577 5.43226 14.0802 4.51559 12.4925C3.91142 11.446 3.66745 10.336 3.78368 9.16228C4.01 7.17928 5.16059 5.58882 7.23544 4.39091C8.53448 3.64091 9.83539 3.31081 11.1382 3.40062C12.9476 3.53469 14.3315 4.43167 15.2898 6.09155C15.4565 6.38022 15.5909 6.6755 15.693 6.97738C16.3078 8.66722 16.0914 10.2716 15.0439 11.7905C15.5887 11.6925 16.1287 11.6694 16.6638 11.7213C18.5871 11.8859 20.0644 12.8613 21.0956 14.6474ZM11.5755 19.7831C11.8671 20.2882 12.2372 20.7 12.6857 21.0185C13.8756 21.8711 15.2102 21.8703 16.6897 21.0161C17.3392 20.6411 17.8294 20.1777 18.1603 19.6258C18.8221 18.5221 18.7988 17.3567 18.0905 16.1299C17.7571 15.5525 17.3364 15.0738 16.8282 14.6936C15.6203 13.8514 14.3217 13.8313 12.9324 14.6334C12.2829 15.0084 11.7799 15.4913 11.4233 16.082C10.7643 17.2323 10.815 18.466 11.5755 19.7831ZM7.45517 11.084C7.72601 11.5531 8.07143 11.943 8.49143 12.2538C9.51819 13.0323 10.6089 13.0881 11.7636 12.4215C12.2327 12.1506 12.6084 11.8014 12.8908 11.3738C13.5116 10.3658 13.4627 9.23934 12.744 7.99443C12.546 7.65163 12.3186 7.36193 12.0618 7.12534C11.0703 6.15814 9.91608 6.05475 8.599 6.81517C8.16599 7.06517 7.80171 7.37171 7.50615 7.7348C6.75342 8.72268 6.73642 9.83908 7.45517 11.084Z" fill="#CAC1FF"/>
<path d="M191.822 95.6256C190.443 95.3825 189.146 94.7241 187.931 93.6504L189.363 91.9941C190.162 92.7133 191.017 93.1615 191.928 93.3387C192.505 93.4404 193.048 93.404 193.558 93.2295C194.667 92.8466 195.344 91.9579 195.59 90.5634C195.678 90.0665 195.657 89.5753 195.528 89.0897C195.141 87.815 194.098 87.0279 192.399 86.7283C191.678 86.6011 190.948 86.5715 190.208 86.6395L191.637 78.537L199.263 79.8568L198.886 81.9967L193.784 81.122L193.123 84.8727C193.449 84.8972 193.733 84.9306 193.973 84.973C195.413 85.2434 196.527 85.8613 197.315 86.8266C198.249 87.9994 198.576 89.3792 198.296 90.9661C198.092 92.1201 197.636 93.114 196.927 93.9475C195.656 95.4421 193.954 96.0015 191.822 95.6256Z" fill="#CAC1FF"/>
<path d="M184.997 27.5867C184.777 26.3365 184.861 25.173 185.25 24.0963C185.91 22.3107 187.21 21.2469 189.149 20.9049C189.79 20.7918 190.392 20.7848 190.955 20.8839C193.426 21.3076 195.032 23.6192 195.773 27.8188C196.14 29.9025 196.144 31.7528 195.785 33.3698C195.185 35.971 193.748 37.4723 191.472 37.8736C191.215 37.9188 190.955 37.94 190.69 37.9371C189.176 37.9728 187.875 37.4418 186.789 36.3441L188.112 34.8466C188.152 34.889 188.201 34.9301 188.258 34.9697C189.123 35.6599 190.053 35.9175 191.046 35.7422C193.111 35.3616 193.891 33.3153 193.385 29.6032C193.375 29.6381 193.356 29.6744 193.33 29.7121C192.678 30.9839 191.695 31.7357 190.381 31.9675C189.419 32.137 188.49 31.9785 187.595 31.4919C186.185 30.7157 185.32 29.414 184.997 27.5867ZM189.502 23.049C189.182 23.1055 188.879 23.2167 188.594 23.3826C187.6 24.0208 187.249 25.1734 187.543 26.8403C187.659 27.4975 187.858 28.0656 188.141 28.5446C188.734 29.5639 189.567 29.9789 190.641 29.7895C190.978 29.7302 191.295 29.6081 191.593 29.4234C192.569 28.772 192.91 27.6128 192.616 25.9458C192.495 25.2566 192.285 24.6739 191.986 24.1977C191.372 23.2482 190.544 22.8653 189.502 23.049Z" fill="#2A61EF"/>
</svg>
