<svg width="22" height="22" viewBox="0 0 22 22" fill="none" xmlns="http://www.w3.org/2000/svg">
<rect x="0.75" y="0.75" width="20.5" height="20.5" rx="10.25" fill="white" stroke="#27BEFF" stroke-width="1.5"/>
<path d="M10.709 14.4453L8.79492 14.5625C8.74284 14.1849 8.7168 13.9375 8.7168 13.8203C8.7168 12.9219 8.93815 12.1341 9.38086 11.457C9.69336 10.9883 10.2728 10.4414 11.1191 9.81641C11.4056 9.60807 11.6139 9.45182 11.7441 9.34766C12.4733 8.76172 12.8379 8.1237 12.8379 7.43359C12.8379 6.97786 12.7207 6.57422 12.4863 6.22266C12.0957 5.6237 11.5423 5.32422 10.8262 5.32422C10.735 5.32422 10.6374 5.33073 10.5332 5.34375C9.73893 5.46094 9.20508 5.92969 8.93164 6.75L7.1543 6.10547C7.31055 5.67578 7.5319 5.29167 7.81836 4.95312C8.59961 4.04167 9.62826 3.58594 10.9043 3.58594C11.7507 3.58594 12.5189 3.80078 13.209 4.23047C14.3288 4.94661 14.8887 5.98828 14.8887 7.35547C14.8887 8.01953 14.7194 8.625 14.3809 9.17188C14.0944 9.6276 13.5215 10.1875 12.6621 10.8516C12.3236 11.112 12.0762 11.3073 11.9199 11.4375C11.0736 12.1797 10.6504 12.9805 10.6504 13.8398C10.6504 14.0612 10.6699 14.263 10.709 14.4453ZM11.2754 16.7891C11.2754 17.0365 11.2363 17.2578 11.1582 17.4531C10.9368 17.974 10.5397 18.2344 9.9668 18.2344C9.82357 18.2344 9.69336 18.2148 9.57617 18.1758C8.99023 17.9935 8.69727 17.5312 8.69727 16.7891C8.69727 16.5677 8.72982 16.3659 8.79492 16.1836C9.00326 15.6497 9.40039 15.3828 9.98633 15.3828C10.1296 15.3828 10.2728 15.4089 10.416 15.4609C10.9889 15.6432 11.2754 16.0859 11.2754 16.7891Z" fill="#27BEFF"/>
</svg>
