<svg width="8" height="16" viewBox="0 0 8 16" fill="none" xmlns="http://www.w3.org/2000/svg">
<path d="M3.70898 11.4453L1.79492 11.5625C1.74284 11.1849 1.7168 10.9375 1.7168 10.8203C1.7168 9.92188 1.93815 9.13411 2.38086 8.45703C2.69336 7.98828 3.27279 7.44141 4.11914 6.81641C4.4056 6.60807 4.61393 6.45182 4.74414 6.34766C5.47331 5.76172 5.83789 5.1237 5.83789 4.43359C5.83789 3.97786 5.7207 3.57422 5.48633 3.22266C5.0957 2.6237 4.54232 2.32422 3.82617 2.32422C3.73503 2.32422 3.63737 2.33073 3.5332 2.34375C2.73893 2.46094 2.20508 2.92969 1.93164 3.75L0.154297 3.10547C0.310547 2.67578 0.531901 2.29167 0.818359 1.95312C1.59961 1.04167 2.62826 0.585938 3.9043 0.585938C4.75065 0.585938 5.51888 0.800781 6.20898 1.23047C7.32878 1.94661 7.88867 2.98828 7.88867 4.35547C7.88867 5.01953 7.7194 5.625 7.38086 6.17188C7.0944 6.6276 6.52148 7.1875 5.66211 7.85156C5.32357 8.11198 5.07617 8.30729 4.91992 8.4375C4.07357 9.17969 3.65039 9.98047 3.65039 10.8398C3.65039 11.0612 3.66992 11.263 3.70898 11.4453ZM4.27539 13.7891C4.27539 14.0365 4.23633 14.2578 4.1582 14.4531C3.93685 14.974 3.53971 15.2344 2.9668 15.2344C2.82357 15.2344 2.69336 15.2148 2.57617 15.1758C1.99023 14.9935 1.69727 14.5312 1.69727 13.7891C1.69727 13.5677 1.72982 13.3659 1.79492 13.1836C2.00326 12.6497 2.40039 12.3828 2.98633 12.3828C3.12956 12.3828 3.27279 12.4089 3.41602 12.4609C3.98893 12.6432 4.27539 13.0859 4.27539 13.7891Z" fill="white"/>
</svg>
