<svg width="15" height="15" viewBox="0 0 15 15" fill="none" xmlns="http://www.w3.org/2000/svg">
<mask id="path-1-inside-1_475_5919" fill="white">
<path d="M14.4814 12.4465L11.2002 5.88398C11.1613 5.80614 11.1014 5.74066 11.0274 5.69491C10.9533 5.64915 10.868 5.62491 10.781 5.62491C10.6939 5.62491 10.6086 5.64915 10.5345 5.69491C10.4605 5.74066 10.4007 5.80614 10.3617 5.88398L9.08965 8.42871C8.09256 8.37264 7.1332 8.02823 6.32813 7.4373C7.27271 6.42859 7.84503 5.1279 7.95059 3.75H9.375C9.49932 3.75 9.61855 3.70061 9.70646 3.61271C9.79436 3.5248 9.84375 3.40557 9.84375 3.28125C9.84375 3.15693 9.79436 3.0377 9.70646 2.94979C9.61855 2.86189 9.49932 2.8125 9.375 2.8125H6.09375V1.875C6.09375 1.75068 6.04436 1.63145 5.95646 1.54354C5.86855 1.45564 5.74932 1.40625 5.625 1.40625C5.50068 1.40625 5.38145 1.45564 5.29354 1.54354C5.20564 1.63145 5.15625 1.75068 5.15625 1.875V2.8125H1.875C1.75068 2.8125 1.63145 2.86189 1.54354 2.94979C1.45564 3.0377 1.40625 3.15693 1.40625 3.28125C1.40625 3.40557 1.45564 3.5248 1.54354 3.61271C1.63145 3.70061 1.75068 3.75 1.875 3.75H7.00957C6.90517 4.89882 6.41751 5.97917 5.625 6.81738C5.13115 6.29629 4.75191 5.67754 4.51172 5.00098C4.49197 4.94195 4.46066 4.88744 4.41962 4.84064C4.37858 4.79384 4.32863 4.75569 4.27268 4.7284C4.21673 4.70111 4.15591 4.68524 4.09377 4.68171C4.03162 4.67818 3.9694 4.68707 3.91072 4.70785C3.85205 4.72862 3.7981 4.76088 3.75202 4.80273C3.70595 4.84458 3.66867 4.89519 3.64236 4.9516C3.61605 5.00802 3.60125 5.06911 3.5988 5.1313C3.59636 5.1935 3.60633 5.25556 3.62813 5.31387C3.90777 6.1048 4.34828 6.82921 4.92188 7.44141C4.03873 8.09038 2.97095 8.43946 1.875 8.4375C1.75068 8.4375 1.63145 8.48689 1.54354 8.57479C1.45564 8.6627 1.40625 8.78193 1.40625 8.90625C1.40625 9.03057 1.45564 9.1498 1.54354 9.23771C1.63145 9.32561 1.75068 9.375 1.875 9.375C3.23472 9.37651 4.55547 8.92085 5.625 8.08125C6.4978 8.7632 7.5397 9.19483 8.63906 9.32988L7.08047 12.4465C7.05292 12.5015 7.03649 12.5615 7.03211 12.6229C7.02773 12.6843 7.03548 12.746 7.05493 12.8044C7.09422 12.9223 7.17875 13.0199 7.28994 13.0755C7.40113 13.1311 7.52987 13.1403 7.64783 13.101C7.76579 13.0617 7.86331 12.9772 7.91895 12.866L8.72695 11.25H12.835L13.643 12.866C13.6819 12.9439 13.7418 13.0094 13.8159 13.0551C13.89 13.1009 13.9754 13.1251 14.0625 13.125C14.1424 13.125 14.221 13.1045 14.2907 13.0656C14.3605 13.0266 14.4191 12.9705 14.4611 12.9025C14.5031 12.8345 14.527 12.757 14.5305 12.6771C14.5341 12.5973 14.5172 12.5179 14.4814 12.4465ZM9.1957 10.3125L10.7813 7.14199L12.3662 10.3125H9.1957Z"/>
</mask>
<path d="M14.4814 12.4465L11.2002 5.88398C11.1613 5.80614 11.1014 5.74066 11.0274 5.69491C10.9533 5.64915 10.868 5.62491 10.781 5.62491C10.6939 5.62491 10.6086 5.64915 10.5345 5.69491C10.4605 5.74066 10.4007 5.80614 10.3617 5.88398L9.08965 8.42871C8.09256 8.37264 7.1332 8.02823 6.32813 7.4373C7.27271 6.42859 7.84503 5.1279 7.95059 3.75H9.375C9.49932 3.75 9.61855 3.70061 9.70646 3.61271C9.79436 3.5248 9.84375 3.40557 9.84375 3.28125C9.84375 3.15693 9.79436 3.0377 9.70646 2.94979C9.61855 2.86189 9.49932 2.8125 9.375 2.8125H6.09375V1.875C6.09375 1.75068 6.04436 1.63145 5.95646 1.54354C5.86855 1.45564 5.74932 1.40625 5.625 1.40625C5.50068 1.40625 5.38145 1.45564 5.29354 1.54354C5.20564 1.63145 5.15625 1.75068 5.15625 1.875V2.8125H1.875C1.75068 2.8125 1.63145 2.86189 1.54354 2.94979C1.45564 3.0377 1.40625 3.15693 1.40625 3.28125C1.40625 3.40557 1.45564 3.5248 1.54354 3.61271C1.63145 3.70061 1.75068 3.75 1.875 3.75H7.00957C6.90517 4.89882 6.41751 5.97917 5.625 6.81738C5.13115 6.29629 4.75191 5.67754 4.51172 5.00098C4.49197 4.94195 4.46066 4.88744 4.41962 4.84064C4.37858 4.79384 4.32863 4.75569 4.27268 4.7284C4.21673 4.70111 4.15591 4.68524 4.09377 4.68171C4.03162 4.67818 3.9694 4.68707 3.91072 4.70785C3.85205 4.72862 3.7981 4.76088 3.75202 4.80273C3.70595 4.84458 3.66867 4.89519 3.64236 4.9516C3.61605 5.00802 3.60125 5.06911 3.5988 5.1313C3.59636 5.1935 3.60633 5.25556 3.62813 5.31387C3.90777 6.1048 4.34828 6.82921 4.92188 7.44141C4.03873 8.09038 2.97095 8.43946 1.875 8.4375C1.75068 8.4375 1.63145 8.48689 1.54354 8.57479C1.45564 8.6627 1.40625 8.78193 1.40625 8.90625C1.40625 9.03057 1.45564 9.1498 1.54354 9.23771C1.63145 9.32561 1.75068 9.375 1.875 9.375C3.23472 9.37651 4.55547 8.92085 5.625 8.08125C6.4978 8.7632 7.5397 9.19483 8.63906 9.32988L7.08047 12.4465C7.05292 12.5015 7.03649 12.5615 7.03211 12.6229C7.02773 12.6843 7.03548 12.746 7.05493 12.8044C7.09422 12.9223 7.17875 13.0199 7.28994 13.0755C7.40113 13.1311 7.52987 13.1403 7.64783 13.101C7.76579 13.0617 7.86331 12.9772 7.91895 12.866L8.72695 11.25H12.835L13.643 12.866C13.6819 12.9439 13.7418 13.0094 13.8159 13.0551C13.89 13.1009 13.9754 13.1251 14.0625 13.125C14.1424 13.125 14.221 13.1045 14.2907 13.0656C14.3605 13.0266 14.4191 12.9705 14.4611 12.9025C14.5031 12.8345 14.527 12.757 14.5305 12.6771C14.5341 12.5973 14.5172 12.5179 14.4814 12.4465ZM9.1957 10.3125L10.7813 7.14199L12.3662 10.3125H9.1957Z" fill="#28426D"/>
<path d="M14.4814 12.4465L11.7982 13.7881L11.7986 13.789L14.4814 12.4465ZM11.2002 5.88398L13.8835 4.54234L13.8833 4.54203L11.2002 5.88398ZM10.3617 5.88398L7.67859 4.54203L7.67831 4.54259L10.3617 5.88398ZM9.08965 8.42871L8.92122 11.424L10.8909 11.5347L11.7731 9.7701L9.08965 8.42871ZM6.32813 7.4373L4.13834 5.38674L1.82706 7.85493L4.55299 9.85575L6.32813 7.4373ZM7.95059 3.75V0.75H5.17162L4.95935 3.52085L7.95059 3.75ZM6.09375 2.8125H3.09375V5.8125H6.09375V2.8125ZM5.625 1.40625L5.625 -1.59375L5.625 1.40625ZM5.15625 2.8125V5.8125H8.15625V2.8125H5.15625ZM1.40625 3.28125L-1.59375 3.28125L1.40625 3.28125ZM7.00957 3.75L9.99726 4.02152L10.2946 0.75H7.00957V3.75ZM5.625 6.81738L3.44753 8.88102L5.62759 11.1813L7.80492 8.87844L5.625 6.81738ZM4.51172 5.00098L1.66674 5.95286L1.67543 5.97885L1.6846 6.00467L4.51172 5.00098ZM3.62813 5.31387L6.45654 4.31384L6.44757 4.28846L6.43815 4.26325L3.62813 5.31387ZM4.92188 7.44141L6.69834 9.85888L9.42242 7.8571L7.11109 5.39023L4.92188 7.44141ZM1.875 8.4375L1.88037 5.4375H1.875V8.4375ZM1.40625 8.90625L-1.59375 8.90625L1.40625 8.90625ZM1.875 9.375L1.87834 6.375H1.875V9.375ZM5.625 8.08125L7.47207 5.71728L5.62066 4.2707L3.77255 5.7215L5.625 8.08125ZM8.63906 9.32988L11.3222 10.6717L13.2232 6.87047L9.00485 6.35227L8.63906 9.32988ZM7.08047 12.4465L9.76338 13.7889L9.76365 13.7883L7.08047 12.4465ZM7.05493 12.8044L4.20862 13.7523L4.20862 13.7523L7.05493 12.8044ZM7.91895 12.866L10.6019 14.2084L10.6022 14.2077L7.91895 12.866ZM8.72695 11.25V8.25H6.87285L6.04367 9.90836L8.72695 11.25ZM12.835 11.25L15.5182 9.90836L14.6891 8.25H12.835V11.25ZM13.643 12.866L10.9597 14.2077L10.9601 14.2085L13.643 12.866ZM14.0625 13.125L14.0609 10.125L14.0604 10.125L14.0625 13.125ZM9.1957 10.3125L6.51252 8.97066L4.3412 13.3125H9.1957V10.3125ZM10.7813 7.14199L13.4646 5.80055L10.7817 0.433789L8.09807 5.80015L10.7813 7.14199ZM12.3662 10.3125V13.3125H17.2199L15.0496 8.97106L12.3662 10.3125ZM14.4814 12.4465L17.1647 11.1048L13.8835 4.54234L11.2002 5.88398L8.51691 7.22563L11.7982 13.7881L14.4814 12.4465ZM11.2002 5.88398L13.8833 4.54203C13.5952 3.96595 13.1524 3.48147 12.6044 3.14286L11.0274 5.69491L9.45033 8.24695C9.05047 7.99986 8.72732 7.64632 8.51707 7.22594L11.2002 5.88398ZM11.0274 5.69491L12.6044 3.14286C12.0565 2.80426 11.4251 2.62491 10.781 2.62491V5.62491V8.62491C10.3109 8.62491 9.85018 8.49404 9.45033 8.24695L11.0274 5.69491ZM10.781 5.62491V2.62491C10.1368 2.62491 9.50544 2.80426 8.9575 3.14286L10.5345 5.69491L12.1116 8.24695C11.7117 8.49404 11.251 8.62491 10.781 8.62491V5.62491ZM10.5345 5.69491L8.9575 3.14286C8.40957 3.48146 7.96672 3.96594 7.67859 4.54203L10.3617 5.88398L13.0448 7.22594C12.8346 7.64633 12.5114 7.99987 12.1116 8.24695L10.5345 5.69491ZM10.3617 5.88398L7.67831 4.54259L6.40624 7.08732L9.08965 8.42871L11.7731 9.7701L13.0451 7.22538L10.3617 5.88398ZM9.08965 8.42871L9.25808 5.43344C8.84111 5.41 8.43993 5.26597 8.10326 5.01885L6.32813 7.4373L4.55299 9.85575C5.82648 10.7905 7.344 11.3353 8.92122 11.424L9.08965 8.42871ZM6.32813 7.4373L8.51791 9.48787C9.92909 7.98088 10.7841 6.03768 10.9418 3.97915L7.95059 3.75L4.95935 3.52085C4.90594 4.21811 4.61632 4.8763 4.13834 5.38674L6.32813 7.4373ZM7.95059 3.75V6.75H9.375V3.75V0.75H7.95059V3.75ZM9.375 3.75V6.75C10.295 6.75 11.1773 6.38454 11.8278 5.73403L9.70646 3.61271L7.58514 1.49139C8.05984 1.01668 8.70367 0.75 9.375 0.75V3.75ZM9.70646 3.61271L11.8278 5.73403C12.4783 5.08351 12.8438 4.20121 12.8438 3.28125H9.84375H6.84375C6.84375 2.60993 7.11043 1.96609 7.58514 1.49139L9.70646 3.61271ZM9.84375 3.28125H12.8438C12.8438 2.36129 12.4783 1.47899 11.8278 0.828473L9.70646 2.94979L7.58514 5.07111C7.11043 4.59641 6.84375 3.95257 6.84375 3.28125H9.84375ZM9.70646 2.94979L11.8278 0.828473C11.1773 0.177956 10.295 -0.1875 9.375 -0.1875V2.8125V5.8125C8.70367 5.8125 8.05984 5.54582 7.58514 5.07111L9.70646 2.94979ZM9.375 2.8125V-0.1875H6.09375V2.8125V5.8125H9.375V2.8125ZM6.09375 2.8125H9.09375V1.875H6.09375H3.09375V2.8125H6.09375ZM6.09375 1.875H9.09375C9.09375 0.955029 8.72829 0.0727391 8.07778 -0.577777L5.95646 1.54354L3.83514 3.66486C3.36044 3.19016 3.09375 2.54633 3.09375 1.875H6.09375ZM5.95646 1.54354L8.07778 -0.577777C7.42726 -1.22829 6.54497 -1.59375 5.625 -1.59375L5.625 1.40625L5.625 4.40625C4.95367 4.40625 4.30984 4.13957 3.83514 3.66486L5.95646 1.54354ZM5.625 1.40625L5.625 -1.59375C4.70503 -1.59375 3.82274 -1.22829 3.17222 -0.577777L5.29354 1.54354L7.41486 3.66486C6.94016 4.13957 6.29633 4.40625 5.625 4.40625L5.625 1.40625ZM5.29354 1.54354L3.17222 -0.577777C2.52171 0.0727391 2.15625 0.955029 2.15625 1.875H5.15625H8.15625C8.15625 2.54633 7.88956 3.19016 7.41486 3.66486L5.29354 1.54354ZM5.15625 1.875H2.15625V2.8125H5.15625H8.15625V1.875H5.15625ZM5.15625 2.8125V-0.1875H1.875V2.8125V5.8125H5.15625V2.8125ZM1.875 2.8125V-0.1875C0.955029 -0.1875 0.0727393 0.177958 -0.577777 0.828473L1.54354 2.94979L3.66486 5.07111C3.19016 5.54581 2.54633 5.8125 1.875 5.8125V2.8125ZM1.54354 2.94979L-0.577777 0.828473C-1.22829 1.47899 -1.59375 2.36128 -1.59375 3.28125L1.40625 3.28125L4.40625 3.28125C4.40625 3.95258 4.13957 4.59641 3.66486 5.07111L1.54354 2.94979ZM1.40625 3.28125L-1.59375 3.28125C-1.59375 4.20122 -1.22829 5.08351 -0.577777 5.73403L1.54354 3.61271L3.66486 1.49139C4.13957 1.96609 4.40625 2.60992 4.40625 3.28125L1.40625 3.28125ZM1.54354 3.61271L-0.577777 5.73403C0.0727393 6.38454 0.955029 6.75 1.875 6.75V3.75V0.75C2.54633 0.75 3.19016 1.01669 3.66486 1.49139L1.54354 3.61271ZM1.875 3.75V6.75H7.00957V3.75V0.75H1.875V3.75ZM7.00957 3.75L4.02188 3.47848C3.97839 3.95707 3.77524 4.40713 3.44508 4.75632L5.625 6.81738L7.80492 8.87844C9.05979 7.5512 9.83194 5.84057 9.99726 4.02152L7.00957 3.75ZM5.625 6.81738L7.80247 4.75374C7.5968 4.53673 7.43887 4.27904 7.33884 3.99729L4.51172 5.00098L1.6846 6.00467C2.06496 7.07603 2.66549 8.05585 3.44753 8.88102L5.625 6.81738ZM4.51172 5.00098L7.3567 4.04909C7.21055 3.61227 6.97886 3.20894 6.67515 2.86263L4.41962 4.84064L2.16408 6.81866C1.94246 6.56595 1.77339 6.27162 1.66674 5.95286L4.51172 5.00098ZM4.41962 4.84064L6.67515 2.86263C6.37145 2.51631 6.00181 2.23395 5.58781 2.03203L4.27268 4.7284L2.95755 7.42477C2.65544 7.27742 2.38571 7.07138 2.16408 6.81866L4.41962 4.84064ZM4.27268 4.7284L5.58781 2.03203C5.17382 1.83011 4.72375 1.71266 4.26387 1.68654L4.09377 4.68171L3.92367 7.67689C3.58808 7.65783 3.25965 7.57212 2.95755 7.42477L4.27268 4.7284ZM4.09377 4.68171L4.26387 1.68654C3.80399 1.66042 3.34351 1.72616 2.90932 1.87991L3.91072 4.70785L4.91212 7.53578C4.59528 7.64797 4.25926 7.69595 3.92367 7.67689L4.09377 4.68171ZM3.91072 4.70785L2.90932 1.87991C2.47513 2.03367 2.0759 2.27236 1.73493 2.58206L3.75202 4.80273L5.76911 7.0234C5.52029 7.2494 5.22896 7.42358 4.91212 7.53578L3.91072 4.70785ZM3.75202 4.80273L1.73493 2.58206C1.39397 2.89177 1.11811 3.26628 0.923443 3.68374L3.64236 4.9516L6.36128 6.21947C6.21922 6.5241 6.01792 6.7974 5.76911 7.0234L3.75202 4.80273ZM3.64236 4.9516L0.923443 3.68374C0.728775 4.1012 0.619201 4.55325 0.601116 5.01351L3.5988 5.1313L6.59649 5.2491C6.58329 5.58496 6.50333 5.91484 6.36128 6.21947L3.64236 4.9516ZM3.5988 5.1313L0.601116 5.01351C0.58303 5.47377 0.656794 5.93303 0.818105 6.36448L3.62813 5.31387L6.43815 4.26325C6.55586 4.5781 6.60969 4.91323 6.59649 5.2491L3.5988 5.1313ZM3.62813 5.31387L0.799709 6.3139C1.21752 7.49561 1.87568 8.57793 2.73266 9.49258L4.92188 7.44141L7.11109 5.39023C6.82089 5.0805 6.59802 4.714 6.45654 4.31384L3.62813 5.31387ZM4.92188 7.44141L3.14541 5.02394C2.77873 5.29338 2.3354 5.43832 1.88037 5.4375L1.875 8.4375L1.86963 11.4375C3.6065 11.4406 5.29872 10.8874 6.69834 9.85888L4.92188 7.44141ZM1.875 8.4375V5.4375C0.955036 5.4375 0.0727445 5.80295 -0.577777 6.45347L1.54354 8.57479L3.66486 10.6961C3.19016 11.1708 2.54632 11.4375 1.875 11.4375V8.4375ZM1.54354 8.57479L-0.577777 6.45347C-1.2283 7.10399 -1.59375 7.98628 -1.59375 8.90625L1.40625 8.90625L4.40625 8.90625C4.40625 9.57758 4.13957 10.2214 3.66486 10.6961L1.54354 8.57479ZM1.40625 8.90625L-1.59375 8.90625C-1.59375 9.82622 -1.2283 10.7085 -0.577777 11.359L1.54354 9.23771L3.66486 7.11639C4.13957 7.59109 4.40625 8.23492 4.40625 8.90625L1.40625 8.90625ZM1.54354 9.23771L-0.577777 11.359C0.0727445 12.0095 0.955036 12.375 1.875 12.375V9.375V6.375C2.54632 6.375 3.19016 6.64168 3.66486 7.11639L1.54354 9.23771ZM1.875 9.375L1.87166 12.375C3.90427 12.3773 5.87863 11.6961 7.47745 10.441L5.625 8.08125L3.77255 5.7215C3.2323 6.1456 2.56516 6.37577 1.87834 6.375L1.875 9.375ZM5.625 8.08125L3.77793 10.4452C5.07967 11.4623 6.63363 12.1061 8.27328 12.3075L8.63906 9.32988L9.00485 6.35227C8.44577 6.28359 7.91592 6.06409 7.47207 5.71728L5.625 8.08125ZM8.63906 9.32988L5.95588 7.98804L4.39729 11.1046L7.08047 12.4465L9.76365 13.7883L11.3222 10.6717L8.63906 9.32988ZM7.08047 12.4465L4.39756 11.1041C4.19373 11.5115 4.07213 11.955 4.03971 12.4094L7.03211 12.6229L10.0245 12.8364C10.0008 13.1679 9.91212 13.4916 9.76338 13.7889L7.08047 12.4465ZM7.03211 12.6229L4.03971 12.4094C4.0073 12.8638 4.06469 13.3201 4.20862 13.7523L7.05493 12.8044L9.90125 11.8565C10.0063 12.1719 10.0482 12.5048 10.0245 12.8364L7.03211 12.6229ZM7.05493 12.8044L4.20862 13.7523C4.4993 14.6251 5.12482 15.3467 5.94755 15.7584L7.28994 13.0755L8.63233 10.3926C9.23269 10.693 9.68914 11.2195 9.90125 11.8565L7.05493 12.8044ZM7.28994 13.0755L5.94755 15.7584C6.77029 16.1701 7.72286 16.238 8.59571 15.9473L7.64783 13.101L6.69994 10.2547C7.33687 10.0426 8.03197 10.0922 8.63233 10.3926L7.28994 13.0755ZM7.64783 13.101L8.59571 15.9473C9.46856 15.6567 10.1902 15.0311 10.6019 14.2084L7.91895 12.866L5.23604 11.5236C5.53643 10.9233 6.06301 10.4668 6.69994 10.2547L7.64783 13.101ZM7.91895 12.866L10.6022 14.2077L11.4102 12.5916L8.72695 11.25L6.04367 9.90836L5.23566 11.5244L7.91895 12.866ZM8.72695 11.25V14.25H12.835V11.25V8.25H8.72695V11.25ZM12.835 11.25L10.1517 12.5916L10.9597 14.2077L13.643 12.866L16.3263 11.5244L15.5182 9.90836L12.835 11.25ZM13.643 12.866L10.9601 14.2085C11.2485 14.7848 11.6917 15.2694 12.2401 15.6079L13.8159 13.0551L15.3918 10.5024C15.792 10.7494 16.1154 11.103 16.3258 11.5235L13.643 12.866ZM13.8159 13.0551L12.2401 15.6079C12.7884 15.9464 13.4202 16.1255 14.0646 16.125L14.0625 13.125L14.0604 10.125C14.5306 10.1247 14.9917 10.2553 15.3918 10.5024L13.8159 13.0551ZM14.0625 13.125L14.0641 16.125C14.6553 16.1247 15.2366 15.9733 15.7529 15.6851L14.2907 13.0656L12.8286 10.446C13.2053 10.2357 13.6295 10.1252 14.0609 10.125L14.0625 13.125ZM14.2907 13.0656L15.7529 15.6851C16.2691 15.397 16.7031 14.9817 17.0137 14.4786L14.4611 12.9025L11.9085 11.3264C12.1351 10.9593 12.4518 10.6563 12.8286 10.446L14.2907 13.0656ZM14.4611 12.9025L17.0137 14.4786C17.3243 13.9756 17.5012 13.4015 17.5276 12.8109L14.5305 12.6771L11.5335 12.5434C11.5527 12.1124 11.6818 11.6935 11.9085 11.3264L14.4611 12.9025ZM14.5305 12.6771L17.5276 12.8109C17.5539 12.2202 17.4289 11.6327 17.1643 11.104L14.4814 12.4465L11.7986 13.789C11.6055 13.4032 11.5143 12.9744 11.5335 12.5434L14.5305 12.6771ZM9.1957 10.3125L11.8789 11.6543L13.4644 8.48383L10.7813 7.14199L8.09807 5.80015L6.51252 8.97066L9.1957 10.3125ZM10.7813 7.14199L8.09787 8.48343L9.68283 11.6539L12.3662 10.3125L15.0496 8.97106L13.4646 5.80055L10.7813 7.14199ZM12.3662 10.3125V7.3125H9.1957V10.3125V13.3125H12.3662V10.3125Z" fill="#28426D" mask="url(#path-1-inside-1_475_5919)"/>
</svg>
