<svg width="14" height="13" viewBox="0 0 14 13" fill="none" xmlns="http://www.w3.org/2000/svg">
<mask id="path-1-inside-1_476_5925" fill="white">
<path d="M13.4814 11.4465L10.2002 4.88398C10.1613 4.80613 10.1014 4.74066 10.0274 4.69491C9.95333 4.64915 9.868 4.62491 9.78096 4.62491C9.69391 4.62491 9.60859 4.64915 9.53454 4.69491C9.4605 4.74066 9.40066 4.80613 9.36172 4.88398L8.08965 7.42871C7.09256 7.37264 6.1332 7.02823 5.32813 6.4373C6.27271 5.42859 6.84503 4.1279 6.95059 2.75H8.375C8.49932 2.75 8.61855 2.70061 8.70646 2.61271C8.79436 2.5248 8.84375 2.40557 8.84375 2.28125C8.84375 2.15693 8.79436 2.0377 8.70646 1.94979C8.61855 1.86189 8.49932 1.8125 8.375 1.8125H5.09375V0.875C5.09375 0.75068 5.04436 0.631451 4.95646 0.543544C4.86855 0.455636 4.74932 0.40625 4.625 0.40625C4.50068 0.40625 4.38145 0.455636 4.29354 0.543544C4.20564 0.631451 4.15625 0.75068 4.15625 0.875V1.8125H0.875C0.75068 1.8125 0.631451 1.86189 0.543544 1.94979C0.455636 2.0377 0.40625 2.15693 0.40625 2.28125C0.40625 2.40557 0.455636 2.5248 0.543544 2.61271C0.631451 2.70061 0.75068 2.75 0.875 2.75H6.00957C5.90517 3.89882 5.41751 4.97917 4.625 5.81738C4.13115 5.29629 3.75191 4.67754 3.51172 4.00098C3.49197 3.94195 3.46066 3.88744 3.41962 3.84064C3.37858 3.79384 3.32863 3.75569 3.27268 3.7284C3.21673 3.70111 3.15591 3.68524 3.09377 3.68171C3.03162 3.67818 2.9694 3.68707 2.91072 3.70784C2.85205 3.72862 2.7981 3.76088 2.75202 3.80273C2.70595 3.84458 2.66867 3.89519 2.64236 3.9516C2.61605 4.00802 2.60125 4.06911 2.5988 4.1313C2.59636 4.1935 2.60633 4.25556 2.62812 4.31387C2.90777 5.1048 3.34828 5.82921 3.92188 6.44141C3.03873 7.09038 1.97095 7.43946 0.875 7.4375C0.75068 7.4375 0.631451 7.48689 0.543544 7.57479C0.455636 7.6627 0.40625 7.78193 0.40625 7.90625C0.40625 8.03057 0.455636 8.1498 0.543544 8.23771C0.631451 8.32561 0.75068 8.375 0.875 8.375C2.23472 8.37651 3.55547 7.92085 4.625 7.08125C5.4978 7.7632 6.5397 8.19483 7.63906 8.32988L6.08047 11.4465C6.05292 11.5015 6.03649 11.5615 6.03211 11.6229C6.02773 11.6843 6.03548 11.746 6.05493 11.8044C6.09422 11.9223 6.17875 12.0199 6.28994 12.0755C6.40113 12.1311 6.52987 12.1403 6.64783 12.101C6.76579 12.0617 6.86331 11.9772 6.91895 11.866L7.72695 10.25H11.835L12.643 11.866C12.6819 11.9439 12.7418 12.0094 12.8159 12.0551C12.89 12.1009 12.9754 12.1251 13.0625 12.125C13.1424 12.125 13.221 12.1045 13.2907 12.0656C13.3605 12.0266 13.4191 11.9705 13.4611 11.9025C13.5031 11.8345 13.527 11.757 13.5305 11.6771C13.5341 11.5973 13.5172 11.5179 13.4814 11.4465ZM8.1957 9.3125L9.78125 6.14199L11.3662 9.3125H8.1957Z"/>
</mask>
<path d="M13.4814 11.4465L10.2002 4.88398C10.1613 4.80613 10.1014 4.74066 10.0274 4.69491C9.95333 4.64915 9.868 4.62491 9.78096 4.62491C9.69391 4.62491 9.60859 4.64915 9.53454 4.69491C9.4605 4.74066 9.40066 4.80613 9.36172 4.88398L8.08965 7.42871C7.09256 7.37264 6.1332 7.02823 5.32813 6.4373C6.27271 5.42859 6.84503 4.1279 6.95059 2.75H8.375C8.49932 2.75 8.61855 2.70061 8.70646 2.61271C8.79436 2.5248 8.84375 2.40557 8.84375 2.28125C8.84375 2.15693 8.79436 2.0377 8.70646 1.94979C8.61855 1.86189 8.49932 1.8125 8.375 1.8125H5.09375V0.875C5.09375 0.75068 5.04436 0.631451 4.95646 0.543544C4.86855 0.455636 4.74932 0.40625 4.625 0.40625C4.50068 0.40625 4.38145 0.455636 4.29354 0.543544C4.20564 0.631451 4.15625 0.75068 4.15625 0.875V1.8125H0.875C0.75068 1.8125 0.631451 1.86189 0.543544 1.94979C0.455636 2.0377 0.40625 2.15693 0.40625 2.28125C0.40625 2.40557 0.455636 2.5248 0.543544 2.61271C0.631451 2.70061 0.75068 2.75 0.875 2.75H6.00957C5.90517 3.89882 5.41751 4.97917 4.625 5.81738C4.13115 5.29629 3.75191 4.67754 3.51172 4.00098C3.49197 3.94195 3.46066 3.88744 3.41962 3.84064C3.37858 3.79384 3.32863 3.75569 3.27268 3.7284C3.21673 3.70111 3.15591 3.68524 3.09377 3.68171C3.03162 3.67818 2.9694 3.68707 2.91072 3.70784C2.85205 3.72862 2.7981 3.76088 2.75202 3.80273C2.70595 3.84458 2.66867 3.89519 2.64236 3.9516C2.61605 4.00802 2.60125 4.06911 2.5988 4.1313C2.59636 4.1935 2.60633 4.25556 2.62812 4.31387C2.90777 5.1048 3.34828 5.82921 3.92188 6.44141C3.03873 7.09038 1.97095 7.43946 0.875 7.4375C0.75068 7.4375 0.631451 7.48689 0.543544 7.57479C0.455636 7.6627 0.40625 7.78193 0.40625 7.90625C0.40625 8.03057 0.455636 8.1498 0.543544 8.23771C0.631451 8.32561 0.75068 8.375 0.875 8.375C2.23472 8.37651 3.55547 7.92085 4.625 7.08125C5.4978 7.7632 6.5397 8.19483 7.63906 8.32988L6.08047 11.4465C6.05292 11.5015 6.03649 11.5615 6.03211 11.6229C6.02773 11.6843 6.03548 11.746 6.05493 11.8044C6.09422 11.9223 6.17875 12.0199 6.28994 12.0755C6.40113 12.1311 6.52987 12.1403 6.64783 12.101C6.76579 12.0617 6.86331 11.9772 6.91895 11.866L7.72695 10.25H11.835L12.643 11.866C12.6819 11.9439 12.7418 12.0094 12.8159 12.0551C12.89 12.1009 12.9754 12.1251 13.0625 12.125C13.1424 12.125 13.221 12.1045 13.2907 12.0656C13.3605 12.0266 13.4191 11.9705 13.4611 11.9025C13.5031 11.8345 13.527 11.757 13.5305 11.6771C13.5341 11.5973 13.5172 11.5179 13.4814 11.4465ZM8.1957 9.3125L9.78125 6.14199L11.3662 9.3125H8.1957Z" fill="#28426D"/>
<path d="M13.4814 11.4465L10.7982 12.7881L10.7986 12.789L13.4814 11.4465ZM10.2002 4.88398L12.8835 3.54234L12.8833 3.54203L10.2002 4.88398ZM9.36172 4.88398L6.67859 3.54203L6.67831 3.54259L9.36172 4.88398ZM8.08965 7.42871L7.92122 10.424L9.89094 10.5347L10.7731 8.7701L8.08965 7.42871ZM5.32813 6.4373L3.13834 4.38674L0.827063 6.85493L3.55299 8.85575L5.32813 6.4373ZM6.95059 2.75V-0.25H4.17162L3.95935 2.52085L6.95059 2.75ZM5.09375 1.8125H2.09375V4.8125H5.09375V1.8125ZM4.625 0.40625L4.625 -2.59375L4.625 0.40625ZM4.15625 1.8125V4.8125H7.15625V1.8125H4.15625ZM0.40625 2.28125L-2.59375 2.28125L0.40625 2.28125ZM6.00957 2.75L8.99726 3.02152L9.29457 -0.25H6.00957V2.75ZM4.625 5.81738L2.44753 7.88102L4.62759 10.1813L6.80492 7.87844L4.625 5.81738ZM3.51172 4.00098L0.666739 4.95286L0.675433 4.97885L0.684599 5.00467L3.51172 4.00098ZM2.62812 4.31387L5.45654 3.31384L5.44757 3.28846L5.43815 3.26325L2.62812 4.31387ZM3.92188 6.44141L5.69834 8.85888L8.42242 6.8571L6.11109 4.39023L3.92188 6.44141ZM0.875 7.4375L0.880372 4.4375H0.875V7.4375ZM0.40625 7.90625L-2.59375 7.90625L0.40625 7.90625ZM0.875 8.375L0.878338 5.375H0.875V8.375ZM4.625 7.08125L6.47207 4.71728L4.62066 3.2707L2.77255 4.7215L4.625 7.08125ZM7.63906 8.32988L10.3222 9.67173L12.2232 5.87047L8.00485 5.35227L7.63906 8.32988ZM6.08047 11.4465L8.76338 12.7889L8.76365 12.7883L6.08047 11.4465ZM6.05493 11.8044L3.20862 12.7523L3.20862 12.7523L6.05493 11.8044ZM6.91895 11.866L9.60185 13.2084L9.60223 13.2077L6.91895 11.866ZM7.72695 10.25V7.25H5.87285L5.04367 8.90836L7.72695 10.25ZM11.835 10.25L14.5182 8.90836L13.6891 7.25H11.835V10.25ZM12.643 11.866L9.95969 13.2077L9.96012 13.2085L12.643 11.866ZM13.0625 12.125L13.0609 9.125L13.0604 9.125L13.0625 12.125ZM8.1957 9.3125L5.51252 7.97066L3.3412 12.3125H8.1957V9.3125ZM9.78125 6.14199L12.4646 4.80055L9.78175 -0.566212L7.09807 4.80015L9.78125 6.14199ZM11.3662 9.3125V12.3125H16.2199L14.0496 7.97106L11.3662 9.3125ZM13.4814 11.4465L16.1647 10.1048L12.8835 3.54234L10.2002 4.88398L7.51691 6.22562L10.7982 12.7881L13.4814 11.4465ZM10.2002 4.88398L12.8833 3.54203C12.5952 2.96596 12.1524 2.48147 11.6044 2.14286L10.0274 4.69491L8.45033 7.24695C8.05046 6.99986 7.72732 6.64631 7.51707 6.22594L10.2002 4.88398ZM10.0274 4.69491L11.6044 2.14286C11.0565 1.80426 10.4251 1.62491 9.78096 1.62491V4.62491V7.62491C9.31093 7.62491 8.85018 7.49404 8.45033 7.24695L10.0274 4.69491ZM9.78096 4.62491V1.62491C9.13683 1.62491 8.50544 1.80426 7.9575 2.14286L9.53454 4.69491L11.1116 7.24695C10.7117 7.49404 10.251 7.62491 9.78096 7.62491V4.62491ZM9.53454 4.69491L7.9575 2.14286C7.40957 2.48146 6.96673 2.96593 6.67859 3.54203L9.36172 4.88398L12.0448 6.22594C11.8346 6.64634 11.5114 6.99987 11.1116 7.24695L9.53454 4.69491ZM9.36172 4.88398L6.67831 3.54259L5.40624 6.08732L8.08965 7.42871L10.7731 8.7701L12.0451 6.22538L9.36172 4.88398ZM8.08965 7.42871L8.25808 4.43344C7.84111 4.41 7.43993 4.26597 7.10326 4.01885L5.32813 6.4373L3.55299 8.85575C4.82648 9.79049 6.344 10.3353 7.92122 10.424L8.08965 7.42871ZM5.32813 6.4373L7.51791 8.48787C8.92909 6.98088 9.78412 5.03768 9.94182 2.97915L6.95059 2.75L3.95935 2.52085C3.90594 3.21811 3.61632 3.8763 3.13834 4.38674L5.32813 6.4373ZM6.95059 2.75V5.75H8.375V2.75V-0.25H6.95059V2.75ZM8.375 2.75V5.75C9.29497 5.75 10.1773 5.38454 10.8278 4.73403L8.70646 2.61271L6.58514 0.491386C7.05984 0.0166841 7.70367 -0.25 8.375 -0.25V2.75ZM8.70646 2.61271L10.8278 4.73403C11.4783 4.08351 11.8438 3.20122 11.8438 2.28125H8.84375H5.84375C5.84375 1.60992 6.11044 0.966085 6.58514 0.491386L8.70646 2.61271ZM8.84375 2.28125H11.8438C11.8438 1.36128 11.4783 0.478988 10.8278 -0.171527L8.70646 1.94979L6.58514 4.07111C6.11044 3.59641 5.84375 2.95258 5.84375 2.28125H8.84375ZM8.70646 1.94979L10.8278 -0.171527C10.1773 -0.822044 9.29497 -1.1875 8.375 -1.1875V1.8125V4.8125C7.70367 4.8125 7.05984 4.54582 6.58514 4.07111L8.70646 1.94979ZM8.375 1.8125V-1.1875H5.09375V1.8125V4.8125H8.375V1.8125ZM5.09375 1.8125H8.09375V0.875H5.09375H2.09375V1.8125H5.09375ZM5.09375 0.875H8.09375C8.09375 -0.0449714 7.72829 -0.927261 7.07778 -1.57778L4.95646 0.543544L2.83514 2.66486C2.36044 2.19016 2.09375 1.54633 2.09375 0.875H5.09375ZM4.95646 0.543544L7.07778 -1.57778C6.42726 -2.22829 5.54497 -2.59375 4.625 -2.59375L4.625 0.40625L4.625 3.40625C3.95367 3.40625 3.30984 3.13957 2.83514 2.66486L4.95646 0.543544ZM4.625 0.40625L4.625 -2.59375C3.70503 -2.59375 2.82274 -2.22829 2.17222 -1.57778L4.29354 0.543544L6.41486 2.66486C5.94016 3.13957 5.29633 3.40625 4.625 3.40625L4.625 0.40625ZM4.29354 0.543544L2.17222 -1.57778C1.52171 -0.927261 1.15625 -0.0449714 1.15625 0.875H4.15625H7.15625C7.15625 1.54633 6.88956 2.19016 6.41486 2.66486L4.29354 0.543544ZM4.15625 0.875H1.15625V1.8125H4.15625H7.15625V0.875H4.15625ZM4.15625 1.8125V-1.1875H0.875V1.8125V4.8125H4.15625V1.8125ZM0.875 1.8125V-1.1875C-0.0449715 -1.1875 -0.927261 -0.822042 -1.57778 -0.171527L0.543544 1.94979L2.66486 4.07111C2.19016 4.54581 1.54633 4.8125 0.875 4.8125V1.8125ZM0.543544 1.94979L-1.57778 -0.171527C-2.22829 0.47899 -2.59375 1.36128 -2.59375 2.28125L0.40625 2.28125L3.40625 2.28125C3.40625 2.95258 3.13957 3.59641 2.66486 4.07111L0.543544 1.94979ZM0.40625 2.28125L-2.59375 2.28125C-2.59375 3.20122 -2.22829 4.08351 -1.57778 4.73403L0.543544 2.61271L2.66486 0.491386C3.13957 0.966087 3.40625 1.60992 3.40625 2.28125L0.40625 2.28125ZM0.543544 2.61271L-1.57778 4.73403C-0.927261 5.38454 -0.0449715 5.75 0.875 5.75V2.75V-0.25C1.54633 -0.25 2.19016 0.0166856 2.66486 0.491386L0.543544 2.61271ZM0.875 2.75V5.75H6.00957V2.75V-0.25H0.875V2.75ZM6.00957 2.75L3.02188 2.47848C2.97839 2.95707 2.77524 3.40713 2.44508 3.75632L4.625 5.81738L6.80492 7.87844C8.05979 6.5512 8.83194 4.84057 8.99726 3.02152L6.00957 2.75ZM4.625 5.81738L6.80247 3.75374C6.5968 3.53673 6.43887 3.27904 6.33884 2.99729L3.51172 4.00098L0.684599 5.00467C1.06496 6.07603 1.66549 7.05585 2.44753 7.88102L4.625 5.81738ZM3.51172 4.00098L6.3567 3.04909C6.21055 2.61227 5.97886 2.20894 5.67515 1.86263L3.41962 3.84064L1.16408 5.81866C0.94246 5.56595 0.773391 5.27162 0.666739 4.95286L3.51172 4.00098ZM3.41962 3.84064L5.67515 1.86263C5.37145 1.51631 5.00181 1.23395 4.58781 1.03203L3.27268 3.7284L1.95755 6.42477C1.65544 6.27742 1.3857 6.07138 1.16408 5.81866L3.41962 3.84064ZM3.27268 3.7284L4.58781 1.03203C4.17382 0.830106 3.72375 0.712656 3.26387 0.686539L3.09377 3.68171L2.92367 6.67689C2.58808 6.65783 2.25965 6.57212 1.95755 6.42477L3.27268 3.7284ZM3.09377 3.68171L3.26387 0.686539C2.80399 0.660422 2.34351 0.726161 1.90932 0.879914L2.91072 3.70784L3.91212 6.53578C3.59528 6.64797 3.25926 6.69595 2.92367 6.67689L3.09377 3.68171ZM2.91072 3.70784L1.90932 0.879914C1.47513 1.03367 1.0759 1.27235 0.734933 1.58206L2.75202 3.80273L4.76911 6.0234C4.52029 6.2494 4.22896 6.42358 3.91212 6.53578L2.91072 3.70784ZM2.75202 3.80273L0.734933 1.58206C0.393972 1.89177 0.11811 2.26628 -0.0765571 2.68374L2.64236 3.9516L5.36128 5.21947C5.21922 5.52411 5.01792 5.7974 4.76911 6.0234L2.75202 3.80273ZM2.64236 3.9516L-0.0765571 2.68374C-0.271226 3.1012 -0.380799 3.55325 -0.398884 4.01351L2.5988 4.1313L5.59649 4.2491C5.58329 4.58496 5.50333 4.91484 5.36128 5.21947L2.64236 3.9516ZM2.5988 4.1313L-0.398884 4.01351C-0.41697 4.47377 -0.343209 4.93302 -0.181895 5.36448L2.62812 4.31387L5.43815 3.26325C5.55586 3.5781 5.60969 3.91324 5.59649 4.2491L2.5988 4.1313ZM2.62812 4.31387L-0.200291 5.3139C0.217523 6.49561 0.875675 7.57793 1.73266 8.49258L3.92188 6.44141L6.11109 4.39023C5.82089 4.0805 5.59802 3.714 5.45654 3.31384L2.62812 4.31387ZM3.92188 6.44141L2.14541 4.02394C1.77873 4.29338 1.3354 4.43832 0.880372 4.4375L0.875 7.4375L0.869628 10.4375C2.6065 10.4406 4.29872 9.88738 5.69834 8.85888L3.92188 6.44141ZM0.875 7.4375V4.4375C-0.0449636 4.4375 -0.927256 4.80295 -1.57778 5.45347L0.543544 7.57479L2.66486 9.69611C2.19016 10.1708 1.54632 10.4375 0.875 10.4375V7.4375ZM0.543544 7.57479L-1.57778 5.45347C-2.2283 6.10399 -2.59375 6.98628 -2.59375 7.90625L0.40625 7.90625L3.40625 7.90625C3.40625 8.57758 3.13957 9.22141 2.66486 9.69611L0.543544 7.57479ZM0.40625 7.90625L-2.59375 7.90625C-2.59375 8.82622 -2.2283 9.70851 -1.57778 10.359L0.543544 8.23771L2.66486 6.11639C3.13957 6.59109 3.40625 7.23492 3.40625 7.90625L0.40625 7.90625ZM0.543544 8.23771L-1.57778 10.359C-0.927256 11.0095 -0.0449636 11.375 0.875 11.375V8.375V5.375C1.54632 5.375 2.19016 5.64168 2.66486 6.11639L0.543544 8.23771ZM0.875 8.375L0.871662 11.375C2.90428 11.3773 4.87863 10.6961 6.47745 9.441L4.625 7.08125L2.77255 4.7215C2.2323 5.1456 1.56516 5.37577 0.878338 5.375L0.875 8.375ZM4.625 7.08125L2.77793 9.44522C4.07967 10.4623 5.63362 11.1061 7.27328 11.3075L7.63906 8.32988L8.00485 5.35227C7.44577 5.28359 6.91592 5.06409 6.47207 4.71728L4.625 7.08125ZM7.63906 8.32988L4.95588 6.98804L3.39729 10.1046L6.08047 11.4465L8.76365 12.7883L10.3222 9.67173L7.63906 8.32988ZM6.08047 11.4465L3.39756 10.1041C3.19373 10.5115 3.07213 10.955 3.03971 11.4094L6.03211 11.6229L9.0245 11.8364C9.00084 12.168 8.91211 12.4916 8.76338 12.7889L6.08047 11.4465ZM6.03211 11.6229L3.03971 11.4094C3.0073 11.8638 3.06469 12.3201 3.20862 12.7523L6.05493 11.8044L8.90125 10.8565C9.00628 11.1719 9.04816 11.5048 9.0245 11.8364L6.03211 11.6229ZM6.05493 11.8044L3.20862 12.7523C3.4993 13.6251 4.12482 14.3467 4.94755 14.7584L6.28994 12.0755L7.63233 9.39258C8.23269 9.69297 8.68914 10.2195 8.90125 10.8565L6.05493 11.8044ZM6.28994 12.0755L4.94755 14.7584C5.77029 15.1701 6.72286 15.238 7.59571 14.9473L6.64783 12.101L5.69994 9.25471C6.33687 9.0426 7.03197 9.09219 7.63233 9.39258L6.28994 12.0755ZM6.64783 12.101L7.59571 14.9473C8.46857 14.6567 9.19019 14.0311 9.60185 13.2084L6.91895 11.866L4.23604 10.5236C4.53643 9.92326 5.06301 9.46682 5.69994 9.25471L6.64783 12.101ZM6.91895 11.866L9.60223 13.2077L10.4102 11.5916L7.72695 10.25L5.04367 8.90836L4.23566 10.5244L6.91895 11.866ZM7.72695 10.25V13.25H11.835V10.25V7.25H7.72695V10.25ZM11.835 10.25L9.15168 11.5916L9.95969 13.2077L12.643 11.866L15.3263 10.5244L14.5182 8.90836L11.835 10.25ZM12.643 11.866L9.96012 13.2085C10.2485 13.7848 10.6917 14.2694 11.2401 14.6079L12.8159 12.0551L14.3918 9.50235C14.792 9.74937 15.1154 10.103 15.3258 10.5235L12.643 11.866ZM12.8159 12.0551L11.2401 14.6079C11.7884 14.9464 12.4202 15.1255 13.0646 15.125L13.0625 12.125L13.0604 9.125C13.5306 9.12466 13.9917 9.25533 14.3918 9.50235L12.8159 12.0551ZM13.0625 12.125L13.0641 15.125C13.6553 15.1247 14.2366 14.9733 14.7529 14.6851L13.2907 12.0656L11.8286 9.44599C12.2053 9.23573 12.6295 9.12523 13.0609 9.125L13.0625 12.125ZM13.2907 12.0656L14.7529 14.6851C15.2691 14.397 15.7031 13.9817 16.0137 13.4786L13.4611 11.9025L10.9085 10.3264C11.1351 9.95932 11.4519 9.65626 11.8286 9.44599L13.2907 12.0656ZM13.4611 11.9025L16.0137 13.4786C16.3243 12.9756 16.5012 12.4015 16.5276 11.8109L13.5305 11.6771L10.5335 11.5434C10.5527 11.1124 10.6818 10.6935 10.9085 10.3264L13.4611 11.9025ZM13.5305 11.6771L16.5276 11.8109C16.5539 11.2202 16.4289 10.6327 16.1643 10.104L13.4814 11.4465L10.7986 12.789C10.6055 12.4032 10.5143 11.9744 10.5335 11.5434L13.5305 11.6771ZM8.1957 9.3125L10.8789 10.6543L12.4644 7.48383L9.78125 6.14199L7.09807 4.80015L5.51252 7.97066L8.1957 9.3125ZM9.78125 6.14199L7.09787 7.48343L8.68283 10.6539L11.3662 9.3125L14.0496 7.97106L12.4646 4.80055L9.78125 6.14199ZM11.3662 9.3125V6.3125H8.1957V9.3125V12.3125H11.3662V9.3125Z" fill="#28426D" mask="url(#path-1-inside-1_476_5925)"/>
</svg>
