<svg width="40" height="37" viewBox="0 0 40 37" fill="none" xmlns="http://www.w3.org/2000/svg">
<g filter="url(#filter0_d_474_5911)">
<rect x="7.85" y="4.85" width="22.3" height="19.3" rx="9.15" stroke="#28426D" stroke-width="1.7" shape-rendering="crispEdges"/>
</g>
<mask id="path-2-inside-1_474_5911" fill="white">
<path d="M25.0752 20.0402L21.7939 13.4777C21.755 13.3999 21.6952 13.3344 21.6211 13.2887C21.5471 13.2429 21.4618 13.2187 21.3747 13.2187C21.2877 13.2187 21.2023 13.2429 21.1283 13.2887C21.0542 13.3344 20.9944 13.3999 20.9555 13.4777L19.6834 16.0225C18.6863 15.9664 17.727 15.622 16.9219 15.0311C17.8665 14.0223 18.4388 12.7216 18.5443 11.3438H19.9688C20.0931 11.3438 20.2123 11.2944 20.3002 11.2065C20.3881 11.1185 20.4375 10.9993 20.4375 10.875C20.4375 10.7507 20.3881 10.6315 20.3002 10.5435C20.2123 10.4556 20.0931 10.4062 19.9688 10.4062H16.6875V9.46875C16.6875 9.34443 16.6381 9.2252 16.5502 9.13729C16.4623 9.04939 16.3431 9 16.2188 9C16.0944 9 15.9752 9.04939 15.8873 9.13729C15.7994 9.2252 15.75 9.34443 15.75 9.46875V10.4062H12.4688C12.3444 10.4062 12.2252 10.4556 12.1373 10.5435C12.0494 10.6315 12 10.7507 12 10.875C12 10.9993 12.0494 11.1185 12.1373 11.2065C12.2252 11.2944 12.3444 11.3438 12.4688 11.3438H17.6033C17.4989 12.4926 17.0113 13.5729 16.2188 14.4111C15.7249 13.89 15.3457 13.2713 15.1055 12.5947C15.0857 12.5357 15.0544 12.4812 15.0134 12.4344C14.9723 12.3876 14.9224 12.3494 14.8664 12.3222C14.8105 12.2949 14.7497 12.279 14.6875 12.2755C14.6254 12.2719 14.5631 12.2808 14.5045 12.3016C14.4458 12.3224 14.3918 12.3546 14.3458 12.3965C14.2997 12.4383 14.2624 12.4889 14.2361 12.5454C14.2098 12.6018 14.195 12.6629 14.1926 12.7251C14.1901 12.7873 14.2001 12.8493 14.2219 12.9076C14.5015 13.6986 14.942 14.423 15.5156 15.0352C14.6325 15.6841 13.5647 16.0332 12.4688 16.0312C12.3444 16.0312 12.2252 16.0806 12.1373 16.1685C12.0494 16.2565 12 16.3757 12 16.5C12 16.6243 12.0494 16.7435 12.1373 16.8315C12.2252 16.9194 12.3444 16.9688 12.4688 16.9688C13.8285 16.9703 15.1492 16.5146 16.2188 15.675C17.0915 16.357 18.1334 16.7886 19.2328 16.9236L17.6742 20.0402C17.6467 20.0953 17.6302 20.1552 17.6259 20.2166C17.6215 20.278 17.6292 20.3397 17.6487 20.3981C17.688 20.5161 17.7725 20.6136 17.8837 20.6692C17.9949 20.7249 18.1236 20.7341 18.2416 20.6948C18.3595 20.6555 18.4571 20.571 18.5127 20.4598L19.3207 18.8438H23.4287L24.2367 20.4598C24.2757 20.5376 24.3356 20.6031 24.4097 20.6489C24.4838 20.6946 24.5692 20.7188 24.6563 20.7188C24.7361 20.7187 24.8147 20.6982 24.8845 20.6593C24.9542 20.6204 25.0129 20.5642 25.0548 20.4963C25.0968 20.4283 25.1207 20.3507 25.1243 20.2709C25.1278 20.1911 25.1109 20.1117 25.0752 20.0402ZM19.7895 17.9062L21.375 14.7357L22.96 17.9062H19.7895Z"/>
</mask>
<path d="M25.0752 20.0402L21.7939 13.4777C21.755 13.3999 21.6952 13.3344 21.6211 13.2887C21.5471 13.2429 21.4618 13.2187 21.3747 13.2187C21.2877 13.2187 21.2023 13.2429 21.1283 13.2887C21.0542 13.3344 20.9944 13.3999 20.9555 13.4777L19.6834 16.0225C18.6863 15.9664 17.727 15.622 16.9219 15.0311C17.8665 14.0223 18.4388 12.7216 18.5443 11.3438H19.9688C20.0931 11.3438 20.2123 11.2944 20.3002 11.2065C20.3881 11.1185 20.4375 10.9993 20.4375 10.875C20.4375 10.7507 20.3881 10.6315 20.3002 10.5435C20.2123 10.4556 20.0931 10.4062 19.9688 10.4062H16.6875V9.46875C16.6875 9.34443 16.6381 9.2252 16.5502 9.13729C16.4623 9.04939 16.3431 9 16.2188 9C16.0944 9 15.9752 9.04939 15.8873 9.13729C15.7994 9.2252 15.75 9.34443 15.75 9.46875V10.4062H12.4688C12.3444 10.4062 12.2252 10.4556 12.1373 10.5435C12.0494 10.6315 12 10.7507 12 10.875C12 10.9993 12.0494 11.1185 12.1373 11.2065C12.2252 11.2944 12.3444 11.3438 12.4688 11.3438H17.6033C17.4989 12.4926 17.0113 13.5729 16.2188 14.4111C15.7249 13.89 15.3457 13.2713 15.1055 12.5947C15.0857 12.5357 15.0544 12.4812 15.0134 12.4344C14.9723 12.3876 14.9224 12.3494 14.8664 12.3222C14.8105 12.2949 14.7497 12.279 14.6875 12.2755C14.6254 12.2719 14.5631 12.2808 14.5045 12.3016C14.4458 12.3224 14.3918 12.3546 14.3458 12.3965C14.2997 12.4383 14.2624 12.4889 14.2361 12.5454C14.2098 12.6018 14.195 12.6629 14.1926 12.7251C14.1901 12.7873 14.2001 12.8493 14.2219 12.9076C14.5015 13.6986 14.942 14.423 15.5156 15.0352C14.6325 15.6841 13.5647 16.0332 12.4688 16.0312C12.3444 16.0312 12.2252 16.0806 12.1373 16.1685C12.0494 16.2565 12 16.3757 12 16.5C12 16.6243 12.0494 16.7435 12.1373 16.8315C12.2252 16.9194 12.3444 16.9688 12.4688 16.9688C13.8285 16.9703 15.1492 16.5146 16.2188 15.675C17.0915 16.357 18.1334 16.7886 19.2328 16.9236L17.6742 20.0402C17.6467 20.0953 17.6302 20.1552 17.6259 20.2166C17.6215 20.278 17.6292 20.3397 17.6487 20.3981C17.688 20.5161 17.7725 20.6136 17.8837 20.6692C17.9949 20.7249 18.1236 20.7341 18.2416 20.6948C18.3595 20.6555 18.4571 20.571 18.5127 20.4598L19.3207 18.8438H23.4287L24.2367 20.4598C24.2757 20.5376 24.3356 20.6031 24.4097 20.6489C24.4838 20.6946 24.5692 20.7188 24.6563 20.7188C24.7361 20.7187 24.8147 20.6982 24.8845 20.6593C24.9542 20.6204 25.0129 20.5642 25.0548 20.4963C25.0968 20.4283 25.1207 20.3507 25.1243 20.2709C25.1278 20.1911 25.1109 20.1117 25.0752 20.0402ZM19.7895 17.9062L21.375 14.7357L22.96 17.9062H19.7895Z" fill="#28426D"/>
<path d="M25.0752 20.0402L22.3919 21.3819L22.3923 21.3827L25.0752 20.0402ZM21.7939 13.4777L24.4772 12.1361L24.4771 12.1358L21.7939 13.4777ZM20.9555 13.4777L18.2723 12.1358L18.2721 12.1363L20.9555 13.4777ZM19.6834 16.0225L19.515 19.0177L21.4847 19.1285L22.3668 17.3639L19.6834 16.0225ZM16.9219 15.0311L14.7321 12.9805L12.4208 15.4487L15.1467 17.4495L16.9219 15.0311ZM18.5443 11.3438V8.34375H15.7654L15.5531 11.1146L18.5443 11.3438ZM16.6875 10.4062H13.6875V13.4062H16.6875V10.4062ZM16.2188 9L16.2188 6L16.2188 9ZM15.75 10.4062V13.4062H18.75V10.4062H15.75ZM12 10.875L9 10.875L12 10.875ZM17.6033 11.3438L20.591 11.6153L20.8883 8.34375H17.6033V11.3438ZM16.2188 14.4111L14.0413 16.4748L16.2213 18.7751L18.3987 16.4722L16.2188 14.4111ZM15.1055 12.5947L12.2605 13.5466L12.2692 13.5726L12.2783 13.5984L15.1055 12.5947ZM14.2219 12.9076L17.0503 11.9076L17.0413 11.8822L17.0319 11.857L14.2219 12.9076ZM15.5156 15.0352L17.2921 17.4526L20.0162 15.4509L17.7048 12.984L15.5156 15.0352ZM12.4688 16.0312L12.4741 13.0312H12.4688V16.0312ZM12 16.5L9 16.5L12 16.5ZM12.4688 16.9688L12.4721 13.9688H12.4688V16.9688ZM16.2188 15.675L18.0658 13.311L16.2144 11.8644L14.3663 13.3152L16.2188 15.675ZM19.2328 16.9236L21.916 18.2655L23.817 14.4642L19.5986 13.946L19.2328 16.9236ZM17.6742 20.0402L20.3571 21.3826L20.3574 21.3821L17.6742 20.0402ZM17.6487 20.3981L14.8024 21.346L14.8024 21.346L17.6487 20.3981ZM18.5127 20.4598L21.1956 21.8022L21.196 21.8014L18.5127 20.4598ZM19.3207 18.8438V15.8438H17.4666L16.6374 17.5021L19.3207 18.8438ZM23.4287 18.8438L26.112 17.5021L25.2828 15.8438H23.4287V18.8438ZM24.2367 20.4598L21.5534 21.8014L21.5539 21.8023L24.2367 20.4598ZM24.6563 20.7188L24.6546 17.7188L24.6541 17.7188L24.6563 20.7188ZM19.7895 17.9062L17.1063 16.5644L14.935 20.9062H19.7895V17.9062ZM21.375 14.7357L24.0584 13.3943L21.3755 8.02754L18.6918 13.3939L21.375 14.7357ZM22.96 17.9062V20.9062H27.8137L25.6433 16.5648L22.96 17.9062ZM25.0752 20.0402L27.7585 18.6986L24.4772 12.1361L21.7939 13.4777L19.1107 14.8194L22.3919 21.3819L25.0752 20.0402ZM21.7939 13.4777L24.4771 12.1358C24.1889 11.5597 23.7461 11.0752 23.1982 10.7366L21.6211 13.2887L20.0441 15.8407C19.6442 15.5936 19.3211 15.2401 19.1108 14.8197L21.7939 13.4777ZM21.6211 13.2887L23.1982 10.7366C22.6502 10.398 22.0188 10.2187 21.3747 10.2187V13.2187V16.2187C20.9047 16.2187 20.4439 16.0878 20.0441 15.8407L21.6211 13.2887ZM21.3747 13.2187V10.2187C20.7306 10.2187 20.0992 10.398 19.5513 10.7366L21.1283 13.2887L22.7053 15.8407C22.3055 16.0878 21.8447 16.2187 21.3747 16.2187V13.2187ZM21.1283 13.2887L19.5513 10.7366C19.0033 11.0752 18.5605 11.5597 18.2723 12.1358L20.9555 13.4777L23.6386 14.8197C23.4283 15.2401 23.1052 15.5936 22.7053 15.8407L21.1283 13.2887ZM20.9555 13.4777L18.2721 12.1363L17 14.6811L19.6834 16.0225L22.3668 17.3639L23.6389 14.8191L20.9555 13.4777ZM19.6834 16.0225L19.8518 13.0272C19.4349 13.0037 19.0337 12.8597 18.697 12.6126L16.9219 15.0311L15.1467 17.4495C16.4202 18.3842 17.9378 18.929 19.515 19.0177L19.6834 16.0225ZM16.9219 15.0311L19.1117 17.0816C20.5228 15.5746 21.3779 13.6314 21.5356 11.5729L18.5443 11.3438L15.5531 11.1146C15.4997 11.8119 15.2101 12.47 14.7321 12.9805L16.9219 15.0311ZM18.5443 11.3438V14.3438H19.9688V11.3438V8.34375H18.5443V11.3438ZM19.9688 11.3438V14.3438C20.8887 14.3438 21.771 13.9783 22.4215 13.3278L20.3002 11.2065L18.1789 9.08514C18.6536 8.61043 19.2974 8.34375 19.9688 8.34375V11.3438ZM20.3002 11.2065L22.4215 13.3278C23.072 12.6773 23.4375 11.795 23.4375 10.875H20.4375H17.4375C17.4375 10.2037 17.7042 9.55984 18.1789 9.08514L20.3002 11.2065ZM20.4375 10.875H23.4375C23.4375 9.95504 23.072 9.07274 22.4215 8.42222L20.3002 10.5435L18.1789 12.6649C17.7042 12.1902 17.4375 11.5463 17.4375 10.875H20.4375ZM20.3002 10.5435L22.4215 8.42222C21.771 7.77171 20.8887 7.40625 19.9688 7.40625V10.4062V13.4062C19.2974 13.4062 18.6536 13.1396 18.1789 12.6649L20.3002 10.5435ZM19.9688 10.4062V7.40625H16.6875V10.4062V13.4062H19.9688V10.4062ZM16.6875 10.4062H19.6875V9.46875H16.6875H13.6875V10.4062H16.6875ZM16.6875 9.46875H19.6875C19.6875 8.54878 19.322 7.66649 18.6715 7.01597L16.5502 9.13729L14.4289 11.2586C13.9542 10.7839 13.6875 10.1401 13.6875 9.46875H16.6875ZM16.5502 9.13729L18.6715 7.01597C18.021 6.36546 17.1387 6 16.2188 6L16.2188 9L16.2188 12C15.5474 12 14.9036 11.7333 14.4289 11.2586L16.5502 9.13729ZM16.2188 9L16.2188 6C15.2988 6 14.4165 6.36546 13.766 7.01597L15.8873 9.13729L18.0086 11.2586C17.5339 11.7333 16.8901 12 16.2188 12L16.2188 9ZM15.8873 9.13729L13.766 7.01597C13.1155 7.66649 12.75 8.54878 12.75 9.46875H15.75H18.75C18.75 10.1401 18.4833 10.7839 18.0086 11.2586L15.8873 9.13729ZM15.75 9.46875H12.75V10.4062H15.75H18.75V9.46875H15.75ZM15.75 10.4062V7.40625H12.4688V10.4062V13.4062H15.75V10.4062ZM12.4688 10.4062V7.40625C11.5488 7.40625 10.6665 7.77171 10.016 8.42222L12.1373 10.5435L14.2586 12.6649C13.7839 13.1396 13.1401 13.4062 12.4688 13.4062V10.4062ZM12.1373 10.5435L10.016 8.42222C9.36546 9.07274 9 9.95503 9 10.875L12 10.875L15 10.875C15 11.5463 14.7333 12.1902 14.2586 12.6649L12.1373 10.5435ZM12 10.875L9 10.875C9 11.795 9.36546 12.6773 10.016 13.3278L12.1373 11.2065L14.2586 9.08514C14.7333 9.55984 15 10.2037 15 10.875L12 10.875ZM12.1373 11.2065L10.016 13.3278C10.6665 13.9783 11.5488 14.3438 12.4688 14.3438V11.3438V8.34375C13.1401 8.34375 13.7839 8.61044 14.2586 9.08514L12.1373 11.2065ZM12.4688 11.3438V14.3438H17.6033V11.3438V8.34375H12.4688V11.3438ZM17.6033 11.3438L14.6156 11.0722C14.5721 11.5508 14.369 12.0009 14.0388 12.3501L16.2188 14.4111L18.3987 16.4722C19.6535 15.145 20.4257 13.4343 20.591 11.6153L17.6033 11.3438ZM16.2188 14.4111L18.3962 12.3475C18.1906 12.1305 18.0326 11.8728 17.9326 11.591L15.1055 12.5947L12.2783 13.5984C12.6587 14.6698 13.2592 15.6496 14.0413 16.4748L16.2188 14.4111ZM15.1055 12.5947L17.9504 11.6428C17.8043 11.206 17.5726 10.8027 17.2689 10.4564L15.0134 12.4344L12.7578 14.4124C12.5362 14.1597 12.3671 13.8654 12.2605 13.5466L15.1055 12.5947ZM15.0134 12.4344L17.2689 10.4564C16.9652 10.1101 16.5956 9.8277 16.1816 9.62578L14.8664 12.3222L13.5513 15.0185C13.2492 14.8712 12.9795 14.6651 12.7578 14.4124L15.0134 12.4344ZM14.8664 12.3222L16.1816 9.62578C15.7676 9.42386 15.3175 9.30641 14.8576 9.28029L14.6875 12.2755L14.5174 15.2706C14.1818 15.2516 13.8534 15.1659 13.5513 15.0185L14.8664 12.3222ZM14.6875 12.2755L14.8576 9.28029C14.3977 9.25417 13.9373 9.31991 13.5031 9.47366L14.5045 12.3016L15.5059 15.1295C15.189 15.2417 14.853 15.2897 14.5174 15.2706L14.6875 12.2755ZM14.5045 12.3016L13.5031 9.47366C13.0689 9.62742 12.6696 9.86611 12.3287 10.1758L14.3458 12.3965L16.3629 14.6171C16.114 14.8432 15.8227 15.0173 15.5059 15.1295L14.5045 12.3016ZM14.3458 12.3965L12.3287 10.1758C11.9877 10.4855 11.7119 10.86 11.5172 11.2775L14.2361 12.5454L16.955 13.8132C16.813 14.1179 16.6117 14.3911 16.3629 14.6171L14.3458 12.3965ZM14.2361 12.5454L11.5172 11.2775C11.3225 11.6949 11.213 12.147 11.1949 12.6073L14.1926 12.7251L17.1902 12.8428C17.177 13.1787 17.0971 13.5086 16.955 13.8132L14.2361 12.5454ZM14.1926 12.7251L11.1949 12.6073C11.1768 13.0675 11.2505 13.5268 11.4119 13.9582L14.2219 12.9076L17.0319 11.857C17.1496 12.1718 17.2034 12.507 17.1902 12.8428L14.1926 12.7251ZM14.2219 12.9076L11.3935 13.9076C11.8113 15.0894 12.4694 16.1717 13.3264 17.0863L15.5156 15.0352L17.7048 12.984C17.4146 12.6743 17.1918 12.3077 17.0503 11.9076L14.2219 12.9076ZM15.5156 15.0352L13.7392 12.6177C13.3725 12.8871 12.9292 13.0321 12.4741 13.0313L12.4688 16.0312L12.4634 19.0312C14.2003 19.0344 15.8925 18.4811 17.2921 17.4526L15.5156 15.0352ZM12.4688 16.0312V13.0312C11.5488 13.0312 10.6665 13.3967 10.016 14.0472L12.1373 16.1685L14.2586 18.2899C13.7839 18.7646 13.1401 19.0312 12.4688 19.0312V16.0312ZM12.1373 16.1685L10.016 14.0472C9.36545 14.6977 9 15.58 9 16.5L12 16.5L15 16.5C15 17.1713 14.7333 17.8152 14.2586 18.2899L12.1373 16.1685ZM12 16.5L9 16.5C9 17.42 9.36545 18.3023 10.016 18.9528L12.1373 16.8315L14.2586 14.7101C14.7333 15.1848 15 15.8287 15 16.5L12 16.5ZM12.1373 16.8315L10.016 18.9528C10.6665 19.6033 11.5488 19.9688 12.4688 19.9688V16.9688V13.9688C13.1401 13.9688 13.7839 14.2354 14.2586 14.7101L12.1373 16.8315ZM12.4688 16.9688L12.4654 19.9687C14.498 19.971 16.4724 19.2899 18.0712 18.0348L16.2188 15.675L14.3663 13.3152C13.8261 13.7394 13.1589 13.9695 12.4721 13.9688L12.4688 16.9688ZM16.2188 15.675L14.3717 18.039C15.6734 19.0561 17.2274 19.6998 18.867 19.9012L19.2328 16.9236L19.5986 13.946C19.0395 13.8773 18.5097 13.6578 18.0658 13.311L16.2188 15.675ZM19.2328 16.9236L16.5496 15.5818L14.991 18.6984L17.6742 20.0402L20.3574 21.3821L21.916 18.2655L19.2328 16.9236ZM17.6742 20.0402L14.9913 18.6978C14.7875 19.1052 14.6659 19.5488 14.6335 20.0031L17.6259 20.2166L20.6183 20.4301C20.5946 20.7617 20.5059 21.0853 20.3571 21.3826L17.6742 20.0402ZM17.6259 20.2166L14.6335 20.0031C14.601 20.4575 14.6584 20.9138 14.8024 21.346L17.6487 20.3981L20.495 19.4502C20.6 19.7656 20.6419 20.0986 20.6183 20.4301L17.6259 20.2166ZM17.6487 20.3981L14.8024 21.346C15.0931 22.2189 15.7186 22.9405 16.5413 23.3521L17.8837 20.6692L19.2261 17.9863C19.8264 18.2867 20.2829 18.8133 20.495 19.4502L17.6487 20.3981ZM17.8837 20.6692L16.5413 23.3521C17.364 23.7638 18.3166 23.8318 19.1895 23.5411L18.2416 20.6948L17.2937 17.8485C17.9306 17.6363 18.6257 17.6859 19.2261 17.9863L17.8837 20.6692ZM18.2416 20.6948L19.1895 23.5411C20.0623 23.2504 20.7839 22.6249 21.1956 21.8022L18.5127 20.4598L15.8298 19.1174C16.1302 18.517 16.6568 18.0606 17.2937 17.8485L18.2416 20.6948ZM18.5127 20.4598L21.196 21.8014L22.004 20.1854L19.3207 18.8438L16.6374 17.5021L15.8294 19.1181L18.5127 20.4598ZM19.3207 18.8438V21.8438H23.4287V18.8438V15.8438H19.3207V18.8438ZM23.4287 18.8438L20.7454 20.1854L21.5534 21.8014L24.2367 20.4598L26.92 19.1181L26.112 17.5021L23.4287 18.8438ZM24.2367 20.4598L21.5539 21.8023C21.8422 22.3786 22.2855 22.8631 22.8338 23.2016L24.4097 20.6489L25.9856 18.0961C26.3857 18.3431 26.7091 18.6967 26.9196 19.1173L24.2367 20.4598ZM24.4097 20.6489L22.8338 23.2016C23.3822 23.5402 24.014 23.7192 24.6584 23.7187L24.6563 20.7188L24.6541 17.7188C25.1244 17.7184 25.5854 17.8491 25.9856 18.0961L24.4097 20.6489ZM24.6563 20.7188L24.6579 23.7187C25.2491 23.7184 25.8304 23.567 26.3466 23.2789L24.8845 20.6593L23.4223 18.0397C23.799 17.8295 24.2232 17.719 24.6546 17.7188L24.6563 20.7188ZM24.8845 20.6593L26.3466 23.2789C26.8629 22.9907 27.2969 22.5754 27.6075 22.0724L25.0548 20.4963L22.5022 18.9202C22.7289 18.5531 23.0456 18.25 23.4223 18.0397L24.8845 20.6593ZM25.0548 20.4963L27.6075 22.0724C27.9181 21.5693 28.0949 20.9952 28.1213 20.4046L25.1243 20.2709L22.1273 20.1372C22.1465 19.7062 22.2756 19.2873 22.5022 18.9202L25.0548 20.4963ZM25.1243 20.2709L28.1213 20.4046C28.1477 19.814 28.0226 19.2264 27.758 18.6977L25.0752 20.0402L22.3923 21.3827C22.1993 20.9969 22.108 20.5682 22.1273 20.1372L25.1243 20.2709ZM19.7895 17.9062L22.4726 19.2481L24.0582 16.0776L21.375 14.7357L18.6918 13.3939L17.1063 16.5644L19.7895 17.9062ZM21.375 14.7357L18.6916 16.0772L20.2766 19.2477L22.96 17.9062L25.6433 16.5648L24.0584 13.3943L21.375 14.7357ZM22.96 17.9062V14.9062H19.7895V17.9062V20.9062H22.96V17.9062Z" fill="#28426D" mask="url(#path-2-inside-1_474_5911)"/>
<defs>
<filter id="filter0_d_474_5911" x="0" y="0" width="40" height="37" filterUnits="userSpaceOnUse" color-interpolation-filters="sRGB">
<feFlood flood-opacity="0" result="BackgroundImageFix"/>
<feColorMatrix in="SourceAlpha" type="matrix" values="0 0 0 0 0 0 0 0 0 0 0 0 0 0 0 0 0 0 127 0" result="hardAlpha"/>
<feMorphology radius="4" operator="dilate" in="SourceAlpha" result="effect1_dropShadow_474_5911"/>
<feOffset dx="1" dy="4"/>
<feGaussianBlur stdDeviation="2"/>
<feComposite in2="hardAlpha" operator="out"/>
<feColorMatrix type="matrix" values="0 0 0 0 0 0 0 0 0 0 0 0 0 0 0 0 0 0 0.02 0"/>
<feBlend mode="normal" in2="BackgroundImageFix" result="effect1_dropShadow_474_5911"/>
<feBlend mode="normal" in="SourceGraphic" in2="effect1_dropShadow_474_5911" result="shape"/>
</filter>
</defs>
</svg>
