<svg width="44" height="40" viewBox="0 0 44 40" fill="none" xmlns="http://www.w3.org/2000/svg">
<g filter="url(#filter0_d_394_3935)">
<rect x="7" y="4" width="27.8333" height="23.8571" rx="10" fill="white"/>
<rect x="7.85" y="4.85" width="26.1333" height="22.1571" rx="9.15" stroke="#28426D" stroke-width="1.7"/>
</g>
<mask id="path-3-inside-1_394_3935" fill="white">
<path d="M29.9985 22.4846L25.6495 13.7867C25.5979 13.6835 25.5186 13.5967 25.4204 13.5361C25.3223 13.4755 25.2092 13.4433 25.0938 13.4433C24.9785 13.4433 24.8654 13.4755 24.7673 13.5361C24.6691 13.5967 24.5898 13.6835 24.5382 13.7867L22.8522 17.1595C21.5306 17.0852 20.2591 16.6287 19.1921 15.8455C20.444 14.5085 21.2026 12.7846 21.3425 10.9583H23.2304C23.3952 10.9583 23.5532 10.8929 23.6697 10.7764C23.7862 10.6598 23.8517 10.5018 23.8517 10.337C23.8517 10.1723 23.7862 10.0142 23.6697 9.89774C23.5532 9.78122 23.3952 9.71577 23.2304 9.71577H18.8814V8.47321C18.8814 8.30843 18.816 8.15041 18.6995 8.0339C18.583 7.91738 18.4249 7.85193 18.2602 7.85193C18.0954 7.85193 17.9374 7.91738 17.8208 8.0339C17.7043 8.15041 17.6389 8.30843 17.6389 8.47321V9.71577H13.2899C13.1251 9.71577 12.9671 9.78122 12.8506 9.89774C12.7341 10.0142 12.6686 10.1723 12.6686 10.337C12.6686 10.5018 12.7341 10.6598 12.8506 10.7764C12.9671 10.8929 13.1251 10.9583 13.2899 10.9583H20.0953C19.9569 12.481 19.3106 13.9129 18.2602 15.0238C17.6056 14.3332 17.103 13.5131 16.7846 12.6164C16.7584 12.5381 16.7169 12.4659 16.6625 12.4039C16.6082 12.3418 16.5419 12.2913 16.4678 12.2551C16.3936 12.2189 16.313 12.1979 16.2307 12.1932C16.1483 12.1885 16.0658 12.2003 15.9881 12.2279C15.9103 12.2554 15.8388 12.2981 15.7777 12.3536C15.7166 12.4091 15.6672 12.4762 15.6324 12.5509C15.5975 12.6257 15.5779 12.7067 15.5746 12.7891C15.5714 12.8715 15.5846 12.9538 15.6135 13.0311C15.9842 14.0794 16.568 15.0395 17.3282 15.8509C16.1577 16.7111 14.7425 17.1737 13.2899 17.1711C13.1251 17.1711 12.9671 17.2366 12.8506 17.3531C12.7341 17.4696 12.6686 17.6276 12.6686 17.7924C12.6686 17.9572 12.7341 18.1152 12.8506 18.2317C12.9671 18.3482 13.1251 18.4137 13.2899 18.4137C15.0921 18.4157 16.8426 17.8118 18.2602 16.699C19.417 17.6028 20.7979 18.1749 22.255 18.3539L20.1892 22.4846C20.1527 22.5576 20.1309 22.637 20.1251 22.7184C20.1193 22.7998 20.1296 22.8815 20.1554 22.959C20.2075 23.1153 20.3195 23.2446 20.4669 23.3183C20.6142 23.392 20.7849 23.4042 20.9412 23.3521C21.0976 23.3001 21.2268 23.188 21.3005 23.0407L22.3715 20.8988H27.8162L28.8871 23.0407C28.9388 23.1439 29.0182 23.2307 29.1164 23.2913C29.2146 23.3519 29.3278 23.384 29.4432 23.3839C29.5491 23.3839 29.6532 23.3567 29.7457 23.3051C29.8381 23.2535 29.9159 23.1791 29.9715 23.089C30.0271 22.9989 30.0588 22.8961 30.0635 22.7903C30.0682 22.6846 30.0458 22.5793 29.9985 22.4846ZM22.9928 19.6562L25.0942 15.4541L27.1949 19.6562H22.9928Z"/>
</mask>
<path d="M29.9985 22.4846L25.6495 13.7867C25.5979 13.6835 25.5186 13.5967 25.4204 13.5361C25.3223 13.4755 25.2092 13.4433 25.0938 13.4433C24.9785 13.4433 24.8654 13.4755 24.7673 13.5361C24.6691 13.5967 24.5898 13.6835 24.5382 13.7867L22.8522 17.1595C21.5306 17.0852 20.2591 16.6287 19.1921 15.8455C20.444 14.5085 21.2026 12.7846 21.3425 10.9583H23.2304C23.3952 10.9583 23.5532 10.8929 23.6697 10.7764C23.7862 10.6598 23.8517 10.5018 23.8517 10.337C23.8517 10.1723 23.7862 10.0142 23.6697 9.89774C23.5532 9.78122 23.3952 9.71577 23.2304 9.71577H18.8814V8.47321C18.8814 8.30843 18.816 8.15041 18.6995 8.0339C18.583 7.91738 18.4249 7.85193 18.2602 7.85193C18.0954 7.85193 17.9374 7.91738 17.8208 8.0339C17.7043 8.15041 17.6389 8.30843 17.6389 8.47321V9.71577H13.2899C13.1251 9.71577 12.9671 9.78122 12.8506 9.89774C12.7341 10.0142 12.6686 10.1723 12.6686 10.337C12.6686 10.5018 12.7341 10.6598 12.8506 10.7764C12.9671 10.8929 13.1251 10.9583 13.2899 10.9583H20.0953C19.9569 12.481 19.3106 13.9129 18.2602 15.0238C17.6056 14.3332 17.103 13.5131 16.7846 12.6164C16.7584 12.5381 16.7169 12.4659 16.6625 12.4039C16.6082 12.3418 16.5419 12.2913 16.4678 12.2551C16.3936 12.2189 16.313 12.1979 16.2307 12.1932C16.1483 12.1885 16.0658 12.2003 15.9881 12.2279C15.9103 12.2554 15.8388 12.2981 15.7777 12.3536C15.7166 12.4091 15.6672 12.4762 15.6324 12.5509C15.5975 12.6257 15.5779 12.7067 15.5746 12.7891C15.5714 12.8715 15.5846 12.9538 15.6135 13.0311C15.9842 14.0794 16.568 15.0395 17.3282 15.8509C16.1577 16.7111 14.7425 17.1737 13.2899 17.1711C13.1251 17.1711 12.9671 17.2366 12.8506 17.3531C12.7341 17.4696 12.6686 17.6276 12.6686 17.7924C12.6686 17.9572 12.7341 18.1152 12.8506 18.2317C12.9671 18.3482 13.1251 18.4137 13.2899 18.4137C15.0921 18.4157 16.8426 17.8118 18.2602 16.699C19.417 17.6028 20.7979 18.1749 22.255 18.3539L20.1892 22.4846C20.1527 22.5576 20.1309 22.637 20.1251 22.7184C20.1193 22.7998 20.1296 22.8815 20.1554 22.959C20.2075 23.1153 20.3195 23.2446 20.4669 23.3183C20.6142 23.392 20.7849 23.4042 20.9412 23.3521C21.0976 23.3001 21.2268 23.188 21.3005 23.0407L22.3715 20.8988H27.8162L28.8871 23.0407C28.9388 23.1439 29.0182 23.2307 29.1164 23.2913C29.2146 23.3519 29.3278 23.384 29.4432 23.3839C29.5491 23.3839 29.6532 23.3567 29.7457 23.3051C29.8381 23.2535 29.9159 23.1791 29.9715 23.089C30.0271 22.9989 30.0588 22.8961 30.0635 22.7903C30.0682 22.6846 30.0458 22.5793 29.9985 22.4846ZM22.9928 19.6562L25.0942 15.4541L27.1949 19.6562H22.9928Z" fill="#28426D"/>
<path d="M29.9985 22.4846L27.3152 23.8263L27.3156 23.8271L29.9985 22.4846ZM25.6495 13.7867L28.3328 12.4451L28.3326 12.4447L25.6495 13.7867ZM24.5382 13.7867L21.8551 12.4447L21.8548 12.4453L24.5382 13.7867ZM22.8522 17.1595L22.6838 20.1547L24.6535 20.2655L25.5356 18.5009L22.8522 17.1595ZM19.1921 15.8455L17.0023 13.7949L14.691 16.2631L17.4169 18.2639L19.1921 15.8455ZM21.3425 10.9583V7.95833H18.5635L18.3512 10.7292L21.3425 10.9583ZM18.8814 9.71577H15.8814V12.7158H18.8814V9.71577ZM18.2602 7.85193V4.85193V7.85193ZM17.6389 9.71577V12.7158H20.6389V9.71577H17.6389ZM12.6686 10.337H9.66864H12.6686ZM20.0953 10.9583L23.0829 11.2298L23.3803 7.95833H20.0953V10.9583ZM18.2602 15.0238L16.0827 17.0875L18.2627 19.3878L20.4401 17.0849L18.2602 15.0238ZM16.7846 12.6164L13.9396 13.5683L13.9483 13.5942L13.9575 13.6201L16.7846 12.6164ZM15.6135 13.0311L18.4419 12.031L18.433 12.0057L18.4235 11.9805L15.6135 13.0311ZM17.3282 15.8509L19.1047 18.2684L21.8288 16.2666L19.5175 13.7997L17.3282 15.8509ZM13.2899 17.1711L13.2953 14.1711H13.2899V17.1711ZM12.6686 17.7924H9.66864H12.6686ZM13.2899 18.4137L13.2933 15.4137H13.2899V18.4137ZM18.2602 16.699L20.1072 14.335L18.2558 12.8884L16.4077 14.3392L18.2602 16.699ZM22.255 18.3539L24.9382 19.6957L26.8392 15.8945L22.6208 15.3763L22.255 18.3539ZM20.1892 22.4846L22.8721 23.827L22.8724 23.8265L20.1892 22.4846ZM20.1554 22.959L17.3091 23.9068L20.1554 22.959ZM21.3005 23.0407L23.9835 24.3831L23.9838 24.3823L21.3005 23.0407ZM22.3715 20.8988V17.8988H20.5174L19.6882 19.5572L22.3715 20.8988ZM27.8162 20.8988L30.4995 19.5572L29.6703 17.8988H27.8162V20.8988ZM28.8871 23.0407L26.2039 24.3823L26.2043 24.3832L28.8871 23.0407ZM29.4432 23.3839L29.4416 20.3839L29.441 20.3839L29.4432 23.3839ZM22.9928 19.6562L20.3096 18.3144L18.1383 22.6562H22.9928V19.6562ZM25.0942 15.4541L27.7776 14.1126L25.0947 8.74586L22.4111 14.1122L25.0942 15.4541ZM27.1949 19.6562V22.6562H32.0486L29.8783 18.3148L27.1949 19.6562ZM29.9985 22.4846L32.6817 21.143L28.3328 12.4451L25.6495 13.7867L22.9662 15.1283L27.3152 23.8263L29.9985 22.4846ZM25.6495 13.7867L28.3326 12.4447C28.0318 11.8433 27.5695 11.3376 26.9975 10.9841L25.4204 13.5361L23.8434 16.0881C23.4676 15.8559 23.164 15.5237 22.9664 15.1287L25.6495 13.7867ZM25.4204 13.5361L26.9975 10.9841C26.4255 10.6306 25.7663 10.4433 25.0938 10.4433V13.4433V16.4433C24.6521 16.4433 24.2192 16.3203 23.8434 16.0881L25.4204 13.5361ZM25.0938 13.4433V10.4433C24.4214 10.4433 23.7622 10.6306 23.1902 10.9841L24.7673 13.5361L26.3443 16.0881C25.9685 16.3203 25.5356 16.4433 25.0938 16.4433V13.4433ZM24.7673 13.5361L23.1902 10.9841C22.6182 11.3375 22.1559 11.8433 21.8551 12.4447L24.5382 13.7867L27.2213 15.1287C27.0237 15.5237 26.72 15.856 26.3443 16.0881L24.7673 13.5361ZM24.5382 13.7867L21.8548 12.4453L20.1688 15.8181L22.8522 17.1595L25.5356 18.5009L27.2216 15.1281L24.5382 13.7867ZM22.8522 17.1595L23.0206 14.1642C22.2792 14.1225 21.5658 13.8664 20.9672 13.427L19.1921 15.8455L17.4169 18.2639C18.9524 19.3909 20.7821 20.0478 22.6838 20.1547L22.8522 17.1595ZM19.1921 15.8455L21.3819 17.896C23.1004 16.0608 24.1417 13.6944 24.3337 11.1875L21.3425 10.9583L18.3512 10.7292C18.2635 11.8748 17.7876 12.9562 17.0023 13.7949L19.1921 15.8455ZM21.3425 10.9583V13.9583H23.2304V10.9583V7.95833H21.3425V10.9583ZM23.2304 10.9583V13.9583C24.1908 13.9583 25.1119 13.5768 25.791 12.8977L23.6697 10.7764L21.5484 8.65504C21.9945 8.20894 22.5995 7.95833 23.2304 7.95833V10.9583ZM23.6697 10.7764L25.791 12.8977C26.4702 12.2186 26.8517 11.2975 26.8517 10.337H23.8517H20.8517C20.8517 9.70618 21.1023 9.10114 21.5484 8.65504L23.6697 10.7764ZM23.8517 10.337H26.8517C26.8517 9.37663 26.4702 8.45554 25.791 7.77642L23.6697 9.89774L21.5484 12.0191C21.1023 11.573 20.8517 10.9679 20.8517 10.337H23.8517ZM23.6697 9.89774L25.791 7.77642C25.1119 7.09729 24.1908 6.71577 23.2304 6.71577V9.71577V12.7158C22.5995 12.7158 21.9945 12.4652 21.5484 12.0191L23.6697 9.89774ZM23.2304 9.71577V6.71577H18.8814V9.71577V12.7158H23.2304V9.71577ZM18.8814 9.71577H21.8814V8.47321H18.8814H15.8814V9.71577H18.8814ZM18.8814 8.47321H21.8814C21.8814 7.51278 21.4999 6.5917 20.8208 5.91258L18.6995 8.0339L16.5781 10.1552C16.1321 9.70912 15.8814 9.10409 15.8814 8.47321H18.8814ZM18.6995 8.0339L20.8208 5.91258C20.1417 5.23346 19.2206 4.85193 18.2602 4.85193V7.85193V10.8519C17.6293 10.8519 17.0242 10.6013 16.5781 10.1552L18.6995 8.0339ZM18.2602 7.85193V4.85193C17.2997 4.85193 16.3786 5.23346 15.6995 5.91258L17.8208 8.0339L19.9422 10.1552C19.4961 10.6013 18.891 10.8519 18.2602 10.8519V7.85193ZM17.8208 8.0339L15.6995 5.91258C15.0204 6.5917 14.6389 7.51278 14.6389 8.47321H17.6389H20.6389C20.6389 9.10409 20.3883 9.70912 19.9422 10.1552L17.8208 8.0339ZM17.6389 8.47321H14.6389V9.71577H17.6389H20.6389V8.47321H17.6389ZM17.6389 9.71577V6.71577H13.2899V9.71577V12.7158H17.6389V9.71577ZM13.2899 9.71577V6.71577C12.3295 6.71577 11.4084 7.0973 10.7293 7.77642L12.8506 9.89774L14.9719 12.0191C14.5258 12.4652 13.9208 12.7158 13.2899 12.7158V9.71577ZM12.8506 9.89774L10.7293 7.77642C10.0502 8.45554 9.66864 9.37662 9.66864 10.337H12.6686H15.6686C15.6686 10.9679 15.418 11.573 14.9719 12.0191L12.8506 9.89774ZM12.6686 10.337H9.66864C9.66864 11.2975 10.0502 12.2186 10.7293 12.8977L12.8506 10.7764L14.9719 8.65504C15.418 9.10113 15.6686 9.70617 15.6686 10.337H12.6686ZM12.8506 10.7764L10.7293 12.8977C11.4084 13.5768 12.3295 13.9583 13.2899 13.9583V10.9583V7.95833C13.9208 7.95833 14.5258 8.20894 14.9719 8.65504L12.8506 10.7764ZM13.2899 10.9583V13.9583H20.0953V10.9583V7.95833H13.2899V10.9583ZM20.0953 10.9583L17.1076 10.6868C17.0301 11.5392 16.6683 12.3408 16.0802 12.9628L18.2602 15.0238L20.4401 17.0849C21.9528 15.4849 22.8837 13.4227 23.0829 11.2298L20.0953 10.9583ZM18.2602 15.0238L20.4376 12.9602C20.0713 12.5736 19.7899 12.1146 19.6117 11.6127L16.7846 12.6164L13.9575 13.6201C14.416 14.9116 15.14 16.0927 16.0827 17.0875L18.2602 15.0238ZM16.7846 12.6164L19.6296 11.6645C19.477 11.2085 19.2351 10.7874 18.9181 10.4258L16.6625 12.4039L14.407 14.3819C14.1987 14.1444 14.0399 13.8678 13.9396 13.5683L16.7846 12.6164ZM16.6625 12.4039L18.9181 10.4258C18.601 10.0643 18.2151 9.76953 17.7829 9.55872L16.4678 12.2551L15.1527 14.9515C14.8688 14.813 14.6153 14.6194 14.407 14.3819L16.6625 12.4039ZM16.4678 12.2551L17.7829 9.55872C17.3507 9.34792 16.8809 9.22531 16.4008 9.19804L16.2307 12.1932L16.0606 15.1884C15.7452 15.1705 15.4366 15.0899 15.1527 14.9515L16.4678 12.2551ZM16.2307 12.1932L16.4008 9.19804C15.9207 9.17078 15.4399 9.23941 14.9867 9.39992L15.9881 12.2279L16.9895 15.0558C16.6917 15.1612 16.3759 15.2063 16.0606 15.1884L16.2307 12.1932ZM15.9881 12.2279L14.9867 9.39992C14.5334 9.56043 14.1166 9.80962 13.7606 10.1329L15.7777 12.3536L17.7948 14.5743C17.561 14.7867 17.2872 14.9503 16.9895 15.0558L15.9881 12.2279ZM15.7777 12.3536L13.7606 10.1329C13.4047 10.4563 13.1167 10.8472 12.9135 11.2831L15.6324 12.5509L18.3513 13.8188C18.2178 14.1051 18.0286 14.3619 17.7948 14.5743L15.7777 12.3536ZM15.6324 12.5509L12.9135 11.2831C12.7102 11.7189 12.5958 12.1908 12.577 12.6713L15.5746 12.7891L18.5723 12.9069C18.5599 13.2225 18.4848 13.5325 18.3513 13.8188L15.6324 12.5509ZM15.5746 12.7891L12.577 12.6713C12.5581 13.1518 12.6351 13.6313 12.8035 14.0817L15.6135 13.0311L18.4235 11.9805C18.5341 12.2763 18.5847 12.5913 18.5723 12.9069L15.5746 12.7891ZM15.6135 13.0311L12.7851 14.0311C13.2939 15.4702 14.0954 16.7882 15.139 17.9021L17.3282 15.8509L19.5175 13.7997C19.0406 13.2908 18.6744 12.6886 18.4419 12.031L15.6135 13.0311ZM17.3282 15.8509L15.5518 13.4334C14.8977 13.9141 14.1069 14.1726 13.2953 14.1711L13.2899 17.1711L13.2845 20.1711C15.378 20.1749 17.4177 19.5081 19.1047 18.2684L17.3282 15.8509ZM13.2899 17.1711V14.1711C12.3295 14.1711 11.4084 14.5526 10.7293 15.2318L12.8506 17.3531L14.9719 19.4744C14.5258 19.9205 13.9208 20.1711 13.2899 20.1711V17.1711ZM12.8506 17.3531L10.7293 15.2318C10.0502 15.9109 9.66864 16.832 9.66864 17.7924H12.6686H15.6686C15.6686 18.4233 15.418 19.0283 14.9719 19.4744L12.8506 17.3531ZM12.6686 17.7924H9.66864C9.66864 18.7528 10.0502 19.6739 10.7293 20.353L12.8506 18.2317L14.9719 16.1104C15.418 16.5565 15.6686 17.1615 15.6686 17.7924H12.6686ZM12.8506 18.2317L10.7293 20.353C11.4084 21.0322 12.3295 21.4137 13.2899 21.4137V18.4137V15.4137C13.9208 15.4137 14.5258 15.6643 14.9719 16.1104L12.8506 18.2317ZM13.2899 18.4137L13.2866 21.4137C15.7616 21.4164 18.1658 20.587 20.1126 19.0587L18.2602 16.699L16.4077 14.3392C15.5194 15.0365 14.4225 15.4149 13.2933 15.4137L13.2899 18.4137ZM18.2602 16.699L16.4131 19.0629C17.9988 20.3019 19.8918 21.0861 21.8892 21.3315L22.255 18.3539L22.6208 15.3763C21.704 15.2636 20.8351 14.9037 20.1072 14.335L18.2602 16.699ZM22.255 18.3539L19.5718 17.012L17.5061 21.1428L20.1892 22.4846L22.8724 23.8265L24.9382 19.6957L22.255 18.3539ZM20.1892 22.4846L17.5063 21.1422C17.2935 21.5675 17.1666 22.0306 17.1327 22.5049L20.1251 22.7184L23.1175 22.9319C23.0953 23.2435 23.0119 23.5476 22.8721 23.827L20.1892 22.4846ZM20.1251 22.7184L17.1327 22.5049C17.0989 22.9793 17.1588 23.4556 17.3091 23.9068L20.1554 22.959L23.0017 22.0111C23.1004 22.3074 23.1398 22.6203 23.1175 22.9319L20.1251 22.7184ZM20.1554 22.959L17.3091 23.9068C17.6125 24.8181 18.2656 25.5714 19.1245 26.0012L20.4669 23.3183L21.8093 20.6354C22.3734 20.9177 22.8024 21.4125 23.0017 22.0111L20.1554 22.959ZM20.4669 23.3183L19.1245 26.0012C19.9834 26.431 20.9779 26.5019 21.8891 26.1985L20.9412 23.3521L19.9933 20.5058C20.5919 20.3065 21.2451 20.3531 21.8093 20.6354L20.4669 23.3183ZM20.9412 23.3521L21.8891 26.1985C22.8003 25.895 23.5537 25.242 23.9835 24.3831L21.3005 23.0407L18.6176 21.6983C18.8999 21.1341 19.3948 20.7052 19.9933 20.5058L20.9412 23.3521ZM21.3005 23.0407L23.9838 24.3823L25.0548 22.2404L22.3715 20.8988L19.6882 19.5572L18.6173 21.699L21.3005 23.0407ZM22.3715 20.8988V23.8988H27.8162V20.8988V17.8988H22.3715V20.8988ZM27.8162 20.8988L25.1329 22.2404L26.2039 24.3823L28.8871 23.0407L31.5704 21.699L30.4995 19.5572L27.8162 20.8988ZM28.8871 23.0407L26.2043 24.3832C26.5054 24.9848 26.9681 25.4907 27.5405 25.8441L29.1164 23.2913L30.6923 20.7385C31.0683 20.9707 31.3722 21.303 31.57 21.6982L28.8871 23.0407ZM29.1164 23.2913L27.5405 25.8441C28.113 26.1975 28.7726 26.3844 29.4453 26.3839L29.4432 23.3839L29.441 20.3839C29.883 20.3836 30.3162 20.5064 30.6923 20.7385L29.1164 23.2913ZM29.4432 23.3839L29.4448 26.3839C30.062 26.3836 30.6689 26.2255 31.2078 25.9247L29.7457 23.3051L28.2835 20.6856C28.6375 20.488 29.0362 20.3841 29.4416 20.3839L29.4432 23.3839ZM29.7457 23.3051L31.2078 25.9247C31.7468 25.6239 32.1999 25.1903 32.5241 24.6651L29.9715 23.089L27.4189 21.5129C27.6319 21.168 27.9295 20.8832 28.2835 20.6856L29.7457 23.3051ZM29.9715 23.089L32.5241 24.6651C32.8484 24.14 33.033 23.5406 33.0605 22.9241L30.0635 22.7903L27.0665 22.6566C27.0846 22.2516 27.2059 21.8579 27.4189 21.5129L29.9715 23.089ZM30.0635 22.7903L33.0605 22.9241C33.0881 22.3075 32.9575 21.6941 32.6813 21.1421L29.9985 22.4846L27.3156 23.8271C27.1342 23.4646 27.0484 23.0616 27.0665 22.6566L30.0635 22.7903ZM22.9928 19.6562L25.6759 20.9981L27.7774 16.7959L25.0942 15.4541L22.4111 14.1122L20.3096 18.3144L22.9928 19.6562ZM25.0942 15.4541L22.4109 16.7955L24.5116 20.9977L27.1949 19.6562L29.8783 18.3148L27.7776 14.1126L25.0942 15.4541ZM27.1949 19.6562V16.6562H22.9928V19.6562V22.6562H27.1949V19.6562Z" fill="#28426D" mask="url(#path-3-inside-1_394_3935)"/>
<defs>
<filter id="filter0_d_394_3935" x="0" y="0" width="43.8333" height="39.8571" filterUnits="userSpaceOnUse" color-interpolation-filters="sRGB">
<feFlood flood-opacity="0" result="BackgroundImageFix"/>
<feColorMatrix in="SourceAlpha" type="matrix" values="0 0 0 0 0 0 0 0 0 0 0 0 0 0 0 0 0 0 127 0" result="hardAlpha"/>
<feMorphology radius="4" operator="dilate" in="SourceAlpha" result="effect1_dropShadow_394_3935"/>
<feOffset dx="1" dy="4"/>
<feGaussianBlur stdDeviation="2"/>
<feComposite in2="hardAlpha" operator="out"/>
<feColorMatrix type="matrix" values="0 0 0 0 0 0 0 0 0 0 0 0 0 0 0 0 0 0 0.02 0"/>
<feBlend mode="normal" in2="BackgroundImageFix" result="effect1_dropShadow_394_3935"/>
<feBlend mode="normal" in="SourceGraphic" in2="effect1_dropShadow_394_3935" result="shape"/>
</filter>
</defs>
</svg>
