<svg width="40" height="35" viewBox="0 0 40 35" fill="none" xmlns="http://www.w3.org/2000/svg">
<g filter="url(#filter0_d_444_10363)">
<rect x="7" y="2" width="24" height="21" rx="10" fill="white"/>
<rect x="7.85" y="2.85" width="22.3" height="19.3" rx="9.15" stroke="#28426D" stroke-width="1.7"/>
</g>
<mask id="path-3-inside-1_444_10363" fill="white">
<path d="M25.4814 17.4465L22.2002 10.884C22.1613 10.8061 22.1014 10.7407 22.0274 10.6949C21.9533 10.6492 21.868 10.6249 21.781 10.6249C21.6939 10.6249 21.6086 10.6492 21.5345 10.6949C21.4605 10.7407 21.4007 10.8061 21.3617 10.884L20.0896 13.4287C19.0926 13.3726 18.1332 13.0282 17.3281 12.4373C18.2727 11.4286 18.845 10.1279 18.9506 8.75H20.375C20.4993 8.75 20.6185 8.70061 20.7065 8.61271C20.7944 8.5248 20.8438 8.40557 20.8438 8.28125C20.8438 8.15693 20.7944 8.0377 20.7065 7.94979C20.6185 7.86189 20.4993 7.8125 20.375 7.8125H17.0938V6.875C17.0938 6.75068 17.0444 6.63145 16.9565 6.54354C16.8685 6.45564 16.7493 6.40625 16.625 6.40625C16.5007 6.40625 16.3815 6.45564 16.2935 6.54354C16.2056 6.63145 16.1563 6.75068 16.1563 6.875V7.8125H12.875C12.7507 7.8125 12.6315 7.86189 12.5435 7.94979C12.4556 8.0377 12.4062 8.15693 12.4062 8.28125C12.4062 8.40557 12.4556 8.5248 12.5435 8.61271C12.6315 8.70061 12.7507 8.75 12.875 8.75H18.0096C17.9052 9.89882 17.4175 10.9792 16.625 11.8174C16.1311 11.2963 15.7519 10.6775 15.5117 10.001C15.492 9.94195 15.4607 9.88744 15.4196 9.84064C15.3786 9.79384 15.3286 9.75569 15.2727 9.7284C15.2167 9.70111 15.1559 9.68524 15.0938 9.68171C15.0316 9.67818 14.9694 9.68707 14.9107 9.70784C14.852 9.72862 14.7981 9.76088 14.752 9.80273C14.7059 9.84458 14.6687 9.89519 14.6424 9.9516C14.6161 10.008 14.6012 10.0691 14.5988 10.1313C14.5964 10.1935 14.6063 10.2556 14.6281 10.3139C14.9078 11.1048 15.3483 11.8292 15.9219 12.4414C15.0387 13.0904 13.971 13.4395 12.875 13.4375C12.7507 13.4375 12.6315 13.4869 12.5435 13.5748C12.4556 13.6627 12.4062 13.7819 12.4062 13.9062C12.4062 14.0306 12.4556 14.1498 12.5435 14.2377C12.6315 14.3256 12.7507 14.375 12.875 14.375C14.2347 14.3765 15.5555 13.9209 16.625 13.0812C17.4978 13.7632 18.5397 14.1948 19.6391 14.3299L18.0805 17.4465C18.0529 17.5015 18.0365 17.5615 18.0321 17.6229C18.0277 17.6843 18.0355 17.746 18.0549 17.8044C18.0942 17.9223 18.1788 18.0199 18.2899 18.0755C18.4011 18.1311 18.5299 18.1403 18.6478 18.101C18.7658 18.0617 18.8633 17.9772 18.9189 17.866L19.727 16.25H23.835L24.643 17.866C24.6819 17.9439 24.7418 18.0094 24.8159 18.0551C24.89 18.1009 24.9754 18.1251 25.0625 18.125C25.1424 18.125 25.221 18.1045 25.2907 18.0656C25.3605 18.0266 25.4191 17.9705 25.4611 17.9025C25.5031 17.8345 25.527 17.757 25.5305 17.6771C25.5341 17.5973 25.5172 17.5179 25.4814 17.4465ZM20.1957 15.3125L21.7813 12.142L23.3662 15.3125H20.1957Z"/>
</mask>
<path d="M25.4814 17.4465L22.2002 10.884C22.1613 10.8061 22.1014 10.7407 22.0274 10.6949C21.9533 10.6492 21.868 10.6249 21.781 10.6249C21.6939 10.6249 21.6086 10.6492 21.5345 10.6949C21.4605 10.7407 21.4007 10.8061 21.3617 10.884L20.0896 13.4287C19.0926 13.3726 18.1332 13.0282 17.3281 12.4373C18.2727 11.4286 18.845 10.1279 18.9506 8.75H20.375C20.4993 8.75 20.6185 8.70061 20.7065 8.61271C20.7944 8.5248 20.8438 8.40557 20.8438 8.28125C20.8438 8.15693 20.7944 8.0377 20.7065 7.94979C20.6185 7.86189 20.4993 7.8125 20.375 7.8125H17.0938V6.875C17.0938 6.75068 17.0444 6.63145 16.9565 6.54354C16.8685 6.45564 16.7493 6.40625 16.625 6.40625C16.5007 6.40625 16.3815 6.45564 16.2935 6.54354C16.2056 6.63145 16.1563 6.75068 16.1563 6.875V7.8125H12.875C12.7507 7.8125 12.6315 7.86189 12.5435 7.94979C12.4556 8.0377 12.4062 8.15693 12.4062 8.28125C12.4062 8.40557 12.4556 8.5248 12.5435 8.61271C12.6315 8.70061 12.7507 8.75 12.875 8.75H18.0096C17.9052 9.89882 17.4175 10.9792 16.625 11.8174C16.1311 11.2963 15.7519 10.6775 15.5117 10.001C15.492 9.94195 15.4607 9.88744 15.4196 9.84064C15.3786 9.79384 15.3286 9.75569 15.2727 9.7284C15.2167 9.70111 15.1559 9.68524 15.0938 9.68171C15.0316 9.67818 14.9694 9.68707 14.9107 9.70784C14.852 9.72862 14.7981 9.76088 14.752 9.80273C14.7059 9.84458 14.6687 9.89519 14.6424 9.9516C14.6161 10.008 14.6012 10.0691 14.5988 10.1313C14.5964 10.1935 14.6063 10.2556 14.6281 10.3139C14.9078 11.1048 15.3483 11.8292 15.9219 12.4414C15.0387 13.0904 13.971 13.4395 12.875 13.4375C12.7507 13.4375 12.6315 13.4869 12.5435 13.5748C12.4556 13.6627 12.4062 13.7819 12.4062 13.9062C12.4062 14.0306 12.4556 14.1498 12.5435 14.2377C12.6315 14.3256 12.7507 14.375 12.875 14.375C14.2347 14.3765 15.5555 13.9209 16.625 13.0812C17.4978 13.7632 18.5397 14.1948 19.6391 14.3299L18.0805 17.4465C18.0529 17.5015 18.0365 17.5615 18.0321 17.6229C18.0277 17.6843 18.0355 17.746 18.0549 17.8044C18.0942 17.9223 18.1788 18.0199 18.2899 18.0755C18.4011 18.1311 18.5299 18.1403 18.6478 18.101C18.7658 18.0617 18.8633 17.9772 18.9189 17.866L19.727 16.25H23.835L24.643 17.866C24.6819 17.9439 24.7418 18.0094 24.8159 18.0551C24.89 18.1009 24.9754 18.1251 25.0625 18.125C25.1424 18.125 25.221 18.1045 25.2907 18.0656C25.3605 18.0266 25.4191 17.9705 25.4611 17.9025C25.5031 17.8345 25.527 17.757 25.5305 17.6771C25.5341 17.5973 25.5172 17.5179 25.4814 17.4465ZM20.1957 15.3125L21.7813 12.142L23.3662 15.3125H20.1957Z" fill="#28426D"/>
<path d="M25.4814 17.4465L22.7982 18.7881L22.7986 18.789L25.4814 17.4465ZM22.2002 10.884L24.8835 9.54234L24.8833 9.54203L22.2002 10.884ZM21.3617 10.884L18.6786 9.54203L18.6783 9.54259L21.3617 10.884ZM20.0896 13.4287L19.9212 16.424L21.8909 16.5347L22.7731 14.7701L20.0896 13.4287ZM17.3281 12.4373L15.1383 10.3867L12.8271 12.8549L15.553 14.8558L17.3281 12.4373ZM18.9506 8.75V5.75H16.1716L15.9594 8.52085L18.9506 8.75ZM17.0938 7.8125H14.0938V10.8125H17.0938V7.8125ZM16.625 6.40625V3.40625V6.40625ZM16.1563 7.8125V10.8125H19.1562V7.8125H16.1563ZM12.4062 8.28125H9.40625H12.4062ZM18.0096 8.75L20.9973 9.02152L21.2946 5.75H18.0096V8.75ZM16.625 11.8174L14.4475 13.881L16.6276 16.1813L18.8049 13.8784L16.625 11.8174ZM15.5117 10.001L12.6667 10.9529L12.6754 10.9788L12.6846 11.0047L15.5117 10.001ZM14.6281 10.3139L17.4565 9.31384L17.4476 9.28846L17.4381 9.26325L14.6281 10.3139ZM15.9219 12.4414L17.6983 14.8589L20.4224 12.8571L18.1111 10.3902L15.9219 12.4414ZM12.875 13.4375L12.8804 10.4375H12.875V13.4375ZM12.4062 13.9062H9.40625H12.4062ZM12.875 14.375L12.8783 11.375H12.875V14.375ZM16.625 13.0812L18.4721 10.7173L16.6207 9.2707L14.7725 10.7215L16.625 13.0812ZM19.6391 14.3299L22.3222 15.6717L24.2232 11.8705L20.0048 11.3523L19.6391 14.3299ZM18.0805 17.4465L20.7634 18.7889L20.7636 18.7883L18.0805 17.4465ZM18.0549 17.8044L15.2086 18.7523L18.0549 17.8044ZM18.9189 17.866L21.6019 19.2084L21.6022 19.2077L18.9189 17.866ZM19.727 16.25V13.25H17.8729L17.0437 14.9084L19.727 16.25ZM23.835 16.25L26.5182 14.9084L25.6891 13.25H23.835V16.25ZM24.643 17.866L21.9597 19.2077L21.9601 19.2085L24.643 17.866ZM25.0625 18.125L25.0609 15.125L25.0604 15.125L25.0625 18.125ZM20.1957 15.3125L17.5125 13.9707L15.3412 18.3125H20.1957V15.3125ZM21.7813 12.142L24.4646 10.8005L21.7817 5.43379L19.0981 10.8002L21.7813 12.142ZM23.3662 15.3125V18.3125H28.2199L26.0496 13.9711L23.3662 15.3125ZM25.4814 17.4465L28.1647 16.1048L24.8835 9.54234L22.2002 10.884L19.5169 12.2256L22.7982 18.7881L25.4814 17.4465ZM22.2002 10.884L24.8833 9.54203C24.5952 8.96595 24.1524 8.48147 23.6044 8.14286L22.0274 10.6949L20.4503 13.247C20.0505 12.9999 19.7273 12.6463 19.5171 12.2259L22.2002 10.884ZM22.0274 10.6949L23.6044 8.14286C23.0565 7.80426 22.4251 7.62491 21.781 7.62491V10.6249V13.6249C21.3109 13.6249 20.8502 13.494 20.4503 13.247L22.0274 10.6949ZM21.781 10.6249V7.62491C21.1368 7.62491 20.5054 7.80426 19.9575 8.14286L21.5345 10.6949L23.1116 13.247C22.7117 13.494 22.251 13.6249 21.781 13.6249V10.6249ZM21.5345 10.6949L19.9575 8.14286C19.4096 8.48146 18.9667 8.96594 18.6786 9.54203L21.3617 10.884L24.0448 12.2259C23.8346 12.6463 23.5114 12.9999 23.1116 13.247L21.5345 10.6949ZM21.3617 10.884L18.6783 9.54259L17.4062 12.0873L20.0896 13.4287L22.7731 14.7701L24.0451 12.2254L21.3617 10.884ZM20.0896 13.4287L20.2581 10.4334C19.8411 10.41 19.4399 10.266 19.1033 10.0189L17.3281 12.4373L15.553 14.8558C16.8265 15.7905 18.344 16.3353 19.9212 16.424L20.0896 13.4287ZM17.3281 12.4373L19.5179 14.4879C20.9291 12.9809 21.7841 11.0377 21.9418 8.97915L18.9506 8.75L15.9594 8.52085C15.9059 9.21811 15.6163 9.8763 15.1383 10.3867L17.3281 12.4373ZM18.9506 8.75V11.75H20.375V8.75V5.75H18.9506V8.75ZM20.375 8.75V11.75C21.295 11.75 22.1773 11.3845 22.8278 10.734L20.7065 8.61271L18.5851 6.49139C19.0598 6.01668 19.7037 5.75 20.375 5.75V8.75ZM20.7065 8.61271L22.8278 10.734C23.4783 10.0835 23.8438 9.20121 23.8438 8.28125H20.8438H17.8438C17.8438 7.60993 18.1104 6.96609 18.5851 6.49139L20.7065 8.61271ZM20.8438 8.28125H23.8438C23.8438 7.36129 23.4783 6.47899 22.8278 5.82847L20.7065 7.94979L18.5851 10.0711C18.1104 9.59641 17.8438 8.95257 17.8438 8.28125H20.8438ZM20.7065 7.94979L22.8278 5.82847C22.1773 5.17796 21.295 4.8125 20.375 4.8125V7.8125V10.8125C19.7037 10.8125 19.0598 10.5458 18.5851 10.0711L20.7065 7.94979ZM20.375 7.8125V4.8125H17.0938V7.8125V10.8125H20.375V7.8125ZM17.0938 7.8125H20.0938V6.875H17.0938H14.0938V7.8125H17.0938ZM17.0938 6.875H20.0938C20.0938 5.95503 19.7283 5.07274 19.0778 4.42222L16.9565 6.54354L14.8351 8.66486C14.3604 8.19016 14.0938 7.54633 14.0938 6.875H17.0938ZM16.9565 6.54354L19.0778 4.42222C18.4273 3.77171 17.545 3.40625 16.625 3.40625V6.40625V9.40625C15.9537 9.40625 15.3098 9.13957 14.8351 8.66486L16.9565 6.54354ZM16.625 6.40625V3.40625C15.705 3.40625 14.8227 3.77171 14.1722 4.42222L16.2935 6.54354L18.4149 8.66486C17.9402 9.13957 17.2963 9.40625 16.625 9.40625V6.40625ZM16.2935 6.54354L14.1722 4.42222C13.5217 5.07274 13.1563 5.95503 13.1563 6.875H16.1563H19.1562C19.1562 7.54633 18.8896 8.19016 18.4149 8.66486L16.2935 6.54354ZM16.1563 6.875H13.1563V7.8125H16.1563H19.1562V6.875H16.1563ZM16.1563 7.8125V4.8125H12.875V7.8125V10.8125H16.1563V7.8125ZM12.875 7.8125V4.8125C11.955 4.8125 11.0727 5.17796 10.4222 5.82847L12.5435 7.94979L14.6649 10.0711C14.1902 10.5458 13.5463 10.8125 12.875 10.8125V7.8125ZM12.5435 7.94979L10.4222 5.82847C9.77171 6.47899 9.40625 7.36128 9.40625 8.28125H12.4062H15.4062C15.4062 8.95258 15.1396 9.59641 14.6649 10.0711L12.5435 7.94979ZM12.4062 8.28125H9.40625C9.40625 9.20122 9.77171 10.0835 10.4222 10.734L12.5435 8.61271L14.6649 6.49139C15.1396 6.96609 15.4062 7.60992 15.4062 8.28125H12.4062ZM12.5435 8.61271L10.4222 10.734C11.0727 11.3845 11.955 11.75 12.875 11.75V8.75V5.75C13.5463 5.75 14.1902 6.01669 14.6649 6.49139L12.5435 8.61271ZM12.875 8.75V11.75H18.0096V8.75V5.75H12.875V8.75ZM18.0096 8.75L15.0219 8.47848C14.9784 8.95707 14.7752 9.40713 14.4451 9.75632L16.625 11.8174L18.8049 13.8784C20.0598 12.5512 20.8319 10.8406 20.9973 9.02152L18.0096 8.75ZM16.625 11.8174L18.8025 9.75374C18.5968 9.53673 18.4389 9.27904 18.3388 8.99729L15.5117 10.001L12.6846 11.0047C13.065 12.076 13.6655 13.0559 14.4475 13.881L16.625 11.8174ZM15.5117 10.001L18.3567 9.04909C18.2105 8.61227 17.9789 8.20894 17.6752 7.86263L15.4196 9.84064L13.1641 11.8187C12.9425 11.5659 12.7734 11.2716 12.6667 10.9529L15.5117 10.001ZM15.4196 9.84064L17.6752 7.86263C17.3714 7.51631 17.0018 7.23395 16.5878 7.03203L15.2727 9.7284L13.9575 12.4248C13.6554 12.2774 13.3857 12.0714 13.1641 11.8187L15.4196 9.84064ZM15.2727 9.7284L16.5878 7.03203C16.1738 6.83011 15.7238 6.71266 15.2639 6.68654L15.0938 9.68171L14.9237 12.6769C14.5881 12.6578 14.2596 12.5721 13.9575 12.4248L15.2727 9.7284ZM15.0938 9.68171L15.2639 6.68654C14.804 6.66042 14.3435 6.72616 13.9093 6.87991L14.9107 9.70784L15.9121 12.5358C15.5953 12.648 15.2593 12.6959 14.9237 12.6769L15.0938 9.68171ZM14.9107 9.70784L13.9093 6.87991C13.4751 7.03367 13.0759 7.27236 12.7349 7.58206L14.752 9.80273L16.7691 12.0234C16.5203 12.2494 16.229 12.4236 15.9121 12.5358L14.9107 9.70784ZM14.752 9.80273L12.7349 7.58206C12.394 7.89177 12.1181 8.26628 11.9234 8.68374L14.6424 9.9516L17.3613 11.2195C17.2192 11.5241 17.0179 11.7974 16.7691 12.0234L14.752 9.80273ZM14.6424 9.9516L11.9234 8.68374C11.7288 9.1012 11.6192 9.55325 11.6011 10.0135L14.5988 10.1313L17.5965 10.2491C17.5833 10.585 17.5033 10.9148 17.3613 11.2195L14.6424 9.9516ZM14.5988 10.1313L11.6011 10.0135C11.583 10.4738 11.6568 10.933 11.8181 11.3645L14.6281 10.3139L17.4381 9.26325C17.5559 9.5781 17.6097 9.91323 17.5965 10.2491L14.5988 10.1313ZM14.6281 10.3139L11.7997 11.3139C12.2175 12.4956 12.8757 13.5779 13.7327 14.4926L15.9219 12.4414L18.1111 10.3902C17.8209 10.0805 17.598 9.714 17.4565 9.31384L14.6281 10.3139ZM15.9219 12.4414L14.1454 10.0239C13.7787 10.2934 13.3354 10.4383 12.8804 10.4375L12.875 13.4375L12.8696 16.4375C14.6065 16.4406 16.2987 15.8874 17.6983 14.8589L15.9219 12.4414ZM12.875 13.4375V10.4375C11.955 10.4375 11.0727 10.803 10.4222 11.4535L12.5435 13.5748L14.6649 15.6961C14.1902 16.1708 13.5463 16.4375 12.875 16.4375V13.4375ZM12.5435 13.5748L10.4222 11.4535C9.7717 12.104 9.40625 12.9863 9.40625 13.9062H12.4062H15.4062C15.4062 14.5776 15.1396 15.2214 14.6649 15.6961L12.5435 13.5748ZM12.4062 13.9062H9.40625C9.40625 14.8262 9.7717 15.7085 10.4222 16.359L12.5435 14.2377L14.6649 12.1164C15.1396 12.5911 15.4062 13.2349 15.4062 13.9062H12.4062ZM12.5435 14.2377L10.4222 16.359C11.0727 17.0095 11.955 17.375 12.875 17.375V14.375V11.375C13.5463 11.375 14.1902 11.6417 14.6649 12.1164L12.5435 14.2377ZM12.875 14.375L12.8717 17.375C14.9043 17.3773 16.8786 16.6961 18.4775 15.441L16.625 13.0812L14.7725 10.7215C14.2323 11.1456 13.5652 11.3758 12.8783 11.375L12.875 14.375ZM16.625 13.0812L14.7779 15.4452C16.0797 16.4623 17.6336 17.1061 19.2733 17.3075L19.6391 14.3299L20.0048 11.3523C19.4458 11.2836 18.9159 11.0641 18.4721 10.7173L16.625 13.0812ZM19.6391 14.3299L16.9559 12.988L15.3973 16.1046L18.0805 17.4465L20.7636 18.7883L22.3222 15.6717L19.6391 14.3299ZM18.0805 17.4465L15.3976 16.1041C15.1937 16.5115 15.0721 16.955 15.0397 17.4094L18.0321 17.6229L21.0245 17.8364C21.0008 18.1679 20.9121 18.4916 20.7634 18.7889L18.0805 17.4465ZM18.0321 17.6229L15.0397 17.4094C15.0073 17.8638 15.0647 18.3201 15.2086 18.7523L18.0549 17.8044L20.9012 16.8565C21.0063 17.1719 21.0482 17.5048 21.0245 17.8364L18.0321 17.6229ZM18.0549 17.8044L15.2086 18.7523C15.4993 19.6251 16.1248 20.3467 16.9476 20.7584L18.2899 18.0755L19.6323 15.3926C20.2327 15.693 20.6891 16.2195 20.9012 16.8565L18.0549 17.8044ZM18.2899 18.0755L16.9476 20.7584C17.7703 21.1701 18.7229 21.238 19.5957 20.9473L18.6478 18.101L17.6999 15.2547C18.3369 15.0426 19.032 15.0922 19.6323 15.3926L18.2899 18.0755ZM18.6478 18.101L19.5957 20.9473C20.4686 20.6567 21.1902 20.0311 21.6019 19.2084L18.9189 17.866L16.236 16.5236C16.5364 15.9233 17.063 15.4668 17.6999 15.2547L18.6478 18.101ZM18.9189 17.866L21.6022 19.2077L22.4102 17.5916L19.727 16.25L17.0437 14.9084L16.2357 16.5244L18.9189 17.866ZM19.727 16.25V19.25H23.835V16.25V13.25H19.727V16.25ZM23.835 16.25L21.1517 17.5916L21.9597 19.2077L24.643 17.866L27.3263 16.5244L26.5182 14.9084L23.835 16.25ZM24.643 17.866L21.9601 19.2085C22.2485 19.7848 22.6917 20.2694 23.2401 20.6079L24.8159 18.0551L26.3918 15.5024C26.792 15.7494 27.1154 16.103 27.3258 16.5235L24.643 17.866ZM24.8159 18.0551L23.2401 20.6079C23.7884 20.9464 24.4202 21.1255 25.0646 21.125L25.0625 18.125L25.0604 15.125C25.5306 15.1247 25.9917 15.2553 26.3918 15.5024L24.8159 18.0551ZM25.0625 18.125L25.0641 21.125C25.6553 21.1247 26.2366 20.9733 26.7529 20.6851L25.2907 18.0656L23.8286 15.446C24.2053 15.2357 24.6295 15.1252 25.0609 15.125L25.0625 18.125ZM25.2907 18.0656L26.7529 20.6851C27.2691 20.397 27.7031 19.9817 28.0137 19.4786L25.4611 17.9025L22.9085 16.3264C23.1351 15.9593 23.4518 15.6563 23.8286 15.446L25.2907 18.0656ZM25.4611 17.9025L28.0137 19.4786C28.3243 18.9756 28.5012 18.4015 28.5276 17.8109L25.5305 17.6771L22.5335 17.5434C22.5527 17.1124 22.6818 16.6935 22.9085 16.3264L25.4611 17.9025ZM25.5305 17.6771L28.5276 17.8109C28.5539 17.2202 28.4289 16.6327 28.1643 16.104L25.4814 17.4465L22.7986 18.789C22.6055 18.4032 22.5143 17.9744 22.5335 17.5434L25.5305 17.6771ZM20.1957 15.3125L22.8789 16.6543L24.4644 13.4838L21.7813 12.142L19.0981 10.8002L17.5125 13.9707L20.1957 15.3125ZM21.7813 12.142L19.0979 13.4834L20.6828 16.6539L23.3662 15.3125L26.0496 13.9711L24.4646 10.8005L21.7813 12.142ZM23.3662 15.3125V12.3125H20.1957V15.3125V18.3125H23.3662V15.3125Z" fill="#28426D" mask="url(#path-3-inside-1_444_10363)"/>
<defs>
<filter id="filter0_d_444_10363" x="0" y="-2" width="40" height="37" filterUnits="userSpaceOnUse" color-interpolation-filters="sRGB">
<feFlood flood-opacity="0" result="BackgroundImageFix"/>
<feColorMatrix in="SourceAlpha" type="matrix" values="0 0 0 0 0 0 0 0 0 0 0 0 0 0 0 0 0 0 127 0" result="hardAlpha"/>
<feMorphology radius="4" operator="dilate" in="SourceAlpha" result="effect1_dropShadow_444_10363"/>
<feOffset dx="1" dy="4"/>
<feGaussianBlur stdDeviation="2"/>
<feComposite in2="hardAlpha" operator="out"/>
<feColorMatrix type="matrix" values="0 0 0 0 0 0 0 0 0 0 0 0 0 0 0 0 0 0 0.02 0"/>
<feBlend mode="normal" in2="BackgroundImageFix" result="effect1_dropShadow_444_10363"/>
<feBlend mode="normal" in="SourceGraphic" in2="effect1_dropShadow_444_10363" result="shape"/>
</filter>
</defs>
</svg>
